<svg width="27" height="27" viewBox="0 0 27 27" fill="none" xmlns="http://www.w3.org/2000/svg">
<path d="M9.9476 13.2635C6.2902 13.2635 3.31587 10.2891 3.31587 6.63173C3.31587 2.97433 6.2902 0 9.9476 0C13.605 0 16.5793 2.97433 16.5793 6.63173C16.5793 10.2891 13.605 13.2635 9.9476 13.2635ZM14.6672 21.531C13.7686 22.4296 13.2635 23.6477 13.2635 24.9187V26.5269H14.8717C16.1427 26.5269 17.3608 26.0218 18.2594 25.1232L25.7831 17.5995C26.7745 16.6081 26.7745 14.9988 25.7831 14.0073C24.7916 13.0159 23.1823 13.0159 22.1909 14.0073L14.6672 21.531ZM11.0529 24.9187C11.0529 23.0486 11.7813 21.2901 13.1032 19.9681L15.7294 17.342C14.098 16.1704 12.1051 15.4729 9.9476 15.4729C4.46316 15.474 0 19.9372 0 25.4216C0 26.0318 0.495169 26.5269 1.10529 26.5269H11.0529V24.9187Z" fill="#BEBEBE"/>
</svg>
