<svg width="16" height="16" viewBox="0 0 16 16" fill="none" xmlns="http://www.w3.org/2000/svg">
<g clip-path="url(#clip0_162_1261)">
<path d="M6.125 16C7.50757 16 8.578 15.8677 9.43665 15.5972C9.41846 15.4995 9.40625 15.3997 9.40625 15.2969C9.40625 14.8376 9.59717 14.4231 9.90234 14.125C9.59717 13.8269 9.40625 13.4124 9.40625 12.9531C9.40625 12.4939 9.59717 12.0793 9.90234 11.7812C9.59717 11.4832 9.40625 11.0686 9.40625 10.6094C9.40625 10.1501 9.59717 9.7356 9.90234 9.4375C9.59717 9.1394 9.40625 8.72485 9.40625 8.26562C9.40625 7.72314 9.67407 7.245 10.0812 6.94617C9.80237 6.69092 9.50452 6.46216 9.19202 6.26086C9.31897 6.10095 9.40625 5.90747 9.40625 5.6875C9.40625 5.16968 8.98657 4.75 8.46875 4.75H3.78125C3.26343 4.75 2.84375 5.16968 2.84375 5.6875C2.84375 5.90698 2.93079 6.09985 3.05701 6.25952C1.23718 7.43188 0 9.55481 0 11.7812C0 15.5629 3.50891 16 6.125 16ZM6.12 11.4498C5.34448 11.4498 4.71375 10.8191 4.71375 10.0436C4.71375 9.4314 5.10925 8.91492 5.65625 8.72217V8.03125C5.65625 7.77222 5.86597 7.5625 6.125 7.5625C6.38403 7.5625 6.59375 7.77222 6.59375 8.03125V8.72534C7.13562 8.92078 7.52625 9.43518 7.52625 10.0436C7.52625 10.3027 7.31653 10.5123 7.0575 10.5123C6.79834 10.5123 6.58875 10.3027 6.58875 10.0436C6.58875 9.78491 6.37854 9.57483 6.12 9.57483C5.86133 9.57483 5.65125 9.78491 5.65125 10.0436C5.65125 10.3022 5.86133 10.5123 6.12 10.5123C6.89539 10.5123 7.52625 11.1432 7.52625 11.9186C7.52625 12.527 7.13562 13.0414 6.59375 13.2369V13.6562C6.59375 13.9153 6.38403 14.125 6.125 14.125C5.86597 14.125 5.65625 13.9153 5.65625 13.6562V13.24C5.10925 13.0474 4.71375 12.5308 4.71375 11.9186C4.71375 11.6595 4.92334 11.4498 5.1825 11.4498C5.44153 11.4498 5.65125 11.6595 5.65125 11.9186C5.65125 12.1772 5.86133 12.3873 6.12 12.3873C6.37854 12.3873 6.58875 12.1772 6.58875 11.9186C6.58875 11.6599 6.37854 11.4498 6.12 11.4498Z" fill="#4BB7F3"/>
<path d="M15.2969 14.5938H11.0469C10.6586 14.5938 10.3438 14.9086 10.3438 15.2969C10.3438 15.6852 10.6586 16 11.0469 16H15.2969C15.6852 16 16 15.6852 16 15.2969C16 14.9086 15.6852 14.5938 15.2969 14.5938Z" fill="#4BB7F3"/>
<path d="M15.2969 12.25H11.0469C10.6586 12.25 10.3438 12.5648 10.3438 12.9531C10.3438 13.3414 10.6586 13.6562 11.0469 13.6562H15.2969C15.6852 13.6562 16 13.3414 16 12.9531C16 12.5648 15.6852 12.25 15.2969 12.25Z" fill="#4BB7F3"/>
<path d="M15.2969 9.90625H11.0469C10.6586 9.90625 10.3438 10.2211 10.3438 10.6094C10.3438 10.9977 10.6586 11.3125 11.0469 11.3125H15.2969C15.6852 11.3125 16 10.9977 16 10.6094C16 10.2211 15.6852 9.90625 15.2969 9.90625Z" fill="#4BB7F3"/>
<path d="M15.2969 7.5625H11.0469C10.6586 7.5625 10.3438 7.87732 10.3438 8.26562C10.3438 8.65393 10.6586 8.96875 11.0469 8.96875H15.2969C15.6852 8.96875 16 8.65393 16 8.26562C16 7.87732 15.6852 7.5625 15.2969 7.5625Z" fill="#4BB7F3"/>
<path d="M7.44495 0.9375C7.25074 0.393066 6.73536 0 6.12501 0C5.51392 0 4.99256 0.391846 4.79884 0.9375H3.31251C3.16187 0.9375 3.02039 1.00977 2.93214 1.13208C2.84425 1.25427 2.81995 1.41174 2.86805 1.55457L3.59986 3.8125H8.65028L9.38196 1.55457C9.43006 1.41174 9.40577 1.25427 9.31788 1.13208C9.22962 1.00977 9.08814 0.9375 8.93751 0.9375H7.44495Z" fill="#4BB7F3"/>
</g>
<defs>
<clipPath id="clip0_162_1261">
<rect width="16" height="16" fill="white"/>
</clipPath>
</defs>
</svg>
