<svg width="25" height="24" viewBox="0 0 25 24" fill="none" xmlns="http://www.w3.org/2000/svg">
<g clip-path="url(#clip0_246_1799)">
<path d="M21.3971 16.6053V18.4761C21.3971 18.8492 21.0938 19.1525 20.7206 19.1525H15.1481C14.775 19.1525 14.4717 18.8492 14.4717 18.4761V16.6053C14.4717 16.2327 14.775 15.9289 15.1481 15.9289H20.7206C21.0938 15.9289 21.3971 16.2327 21.3971 16.6053ZM15.7871 11.4313H16.9791L16.515 14.6909C16.4906 14.862 16.5867 15.028 16.7471 15.0917C16.7925 15.11 16.8394 15.1184 16.8858 15.1184C17.0044 15.1184 17.1197 15.0617 17.1914 14.9605L20.3874 10.4534C20.4685 10.3391 20.4788 10.1891 20.4146 10.0649C20.3499 9.94017 20.2219 9.86189 20.0817 9.86189H18.8897L19.3538 6.6022C19.3781 6.4311 19.2821 6.26517 19.1213 6.20142C18.961 6.13767 18.7772 6.19157 18.6769 6.33267L15.4814 10.8397C15.4003 10.9541 15.39 11.1041 15.4542 11.2288C15.5185 11.353 15.6469 11.4313 15.7871 11.4313ZM23.7328 6.54173V20.0694C23.7328 21.005 22.9716 21.7663 22.036 21.7663H13.8324C12.8967 21.7663 12.1355 21.005 12.1355 20.0694V19.4942H6.01409V20.4242C6.01409 21.1644 5.41221 21.7663 4.67205 21.7663H2.98455C2.24487 21.7663 1.64252 21.1644 1.64252 20.4242V18.3214C1.13018 17.7289 0.81893 16.9574 0.81893 16.1136C0.81893 15.395 1.04487 14.7284 1.42877 14.1805L0.636117 12.8628C0.442992 12.5417 0.432211 12.1489 0.608461 11.8381C0.792211 11.5128 1.14424 11.3263 1.57362 11.3263H3.4158L3.81049 10.498C4.44705 9.16157 5.68455 8.42564 7.29518 8.42564H12.1355V6.54173C12.1355 5.6061 12.8967 4.84485 13.8324 4.84485H15.0975V3.13204C15.0975 2.60798 15.5236 2.18188 16.0477 2.18188H19.8211C20.3442 2.18188 20.7699 2.60798 20.7699 3.13204V4.84485H22.036C22.9716 4.84485 23.7328 5.6061 23.7328 6.54173ZM2.53737 13.1717L3.05909 12.0758H1.57362C1.41987 12.0758 1.30877 12.1227 1.26049 12.2075C1.21737 12.2834 1.2244 12.387 1.2783 12.4766L1.95002 13.5931C2.12955 13.4328 2.32643 13.2913 2.53737 13.1717ZM6.66237 16.1136C6.66237 15.6575 6.29112 15.2863 5.83455 15.2863H4.3083C3.85174 15.2863 3.48049 15.6575 3.48049 16.1136C3.48049 16.5697 3.85174 16.9414 4.3083 16.9414H5.83455C6.29112 16.9414 6.66237 16.5702 6.66237 16.1136ZM12.1355 17.6722H8.39815V18.7447H12.1355V17.6722ZM12.1355 9.17517H7.29518C5.62174 9.17517 4.84455 10.07 4.4869 10.8205L3.54565 12.7972C3.75705 12.7559 3.97549 12.7334 4.19909 12.7334H12.1355V9.17517ZM22.9833 6.54173C22.9833 6.01907 22.5586 5.59392 22.036 5.59392H13.8324C13.3102 5.59392 12.885 6.01907 12.885 6.54173V20.0694C12.885 20.5916 13.3102 21.0167 13.8324 21.0167H22.036C22.5586 21.0167 22.9833 20.5916 22.9833 20.0694V6.54173Z" fill="#4BB7F3"/>
</g>
<defs>
<clipPath id="clip0_246_1799">
<rect width="24" height="24" fill="white" transform="translate(0.483398)"/>
</clipPath>
</defs>
</svg>
