<svg width="14" height="12" viewBox="0 0 14 12" fill="none" xmlns="http://www.w3.org/2000/svg">
<path d="M13.3149 2.39003C13.15 2.19214 12.9435 2.03299 12.7102 1.92387C12.4769 1.81476 12.2224 1.75835 11.9648 1.75867H2.48676L2.46214 1.5529C2.41175 1.12521 2.20618 0.730863 1.88441 0.444637C1.56263 0.158411 1.14702 0.000200367 0.716364 0L0.586223 0C0.430747 0 0.281639 0.0617626 0.171701 0.171701C0.0617626 0.281639 0 0.430747 0 0.586223C0 0.741699 0.0617626 0.890807 0.171701 1.00074C0.281639 1.11068 0.430747 1.17245 0.586223 1.17245H0.716364C0.85995 1.17246 0.998535 1.22518 1.10583 1.32059C1.21313 1.41601 1.28168 1.54748 1.29848 1.69008L2.10513 8.54889C2.18887 9.2622 2.53159 9.91993 3.06824 10.3973C3.60488 10.8746 4.2981 11.1382 5.01631 11.1382H11.1382C11.2937 11.1382 11.4428 11.0765 11.5528 10.9665C11.6627 10.8566 11.7245 10.7075 11.7245 10.552C11.7245 10.3965 11.6627 10.2474 11.5528 10.1375C11.4428 10.0275 11.2937 9.96579 11.1382 9.96579H5.01631C4.65347 9.96477 4.29983 9.85155 4.00386 9.64164C3.7079 9.43174 3.48411 9.13543 3.36316 8.79334H10.3509C11.0382 8.79338 11.7036 8.55195 12.2308 8.11124C12.7581 7.67052 13.1138 7.05853 13.2357 6.38221L13.6959 3.82979C13.7419 3.57655 13.7315 3.3163 13.6657 3.06749C13.5998 2.81868 13.4801 2.5874 13.3149 2.39003Z" fill="#4BB7F3"/>
</svg>
