<svg width="30" height="31" viewBox="0 0 30 31" fill="none" xmlns="http://www.w3.org/2000/svg">
<g clip-path="url(#clip0_222_204)">
<path d="M28.3785 5.82364C28.0273 5.40209 27.5875 5.06306 27.0905 4.83061C26.5934 4.59817 26.0513 4.47801 25.5026 4.47868H5.31204L5.25959 4.04036C5.15225 3.12926 4.71434 2.28921 4.02889 1.67948C3.34343 1.06975 2.45808 0.732727 1.54068 0.7323L1.26344 0.7323C0.932243 0.7323 0.614607 0.863869 0.380412 1.09806C0.146218 1.33226 0.0146484 1.64989 0.0146484 1.98109C0.0146484 2.3123 0.146218 2.62993 0.380412 2.86413C0.614607 3.09832 0.932243 3.22989 1.26344 3.22989H1.54068C1.84655 3.22993 2.14177 3.34223 2.37034 3.54548C2.59891 3.74873 2.74494 4.0288 2.78073 4.33258L4.49907 18.9435C4.67746 20.463 5.40754 21.8641 6.55073 22.8809C7.69391 23.8977 9.17063 24.4594 10.7006 24.4594H23.7418C24.073 24.4594 24.3906 24.3278 24.6248 24.0936C24.859 23.8594 24.9906 23.5418 24.9906 23.2106C24.9906 22.8794 24.859 22.5618 24.6248 22.3276C24.3906 22.0934 24.073 21.9618 23.7418 21.9618H10.7006C9.92765 21.9596 9.17431 21.7185 8.54384 21.2713C7.91337 20.8242 7.43663 20.193 7.17899 19.4642H22.0646C23.5286 19.4643 24.946 18.95 26.0693 18.0112C27.1926 17.0723 27.9502 15.7687 28.2099 14.3279L29.1903 8.89068C29.2881 8.35121 29.2661 7.79682 29.1258 7.26679C28.9856 6.73677 28.7304 6.24408 28.3785 5.82364Z" fill="#727272"/>
<path d="M8.75638 30.7034C10.1358 30.7034 11.254 29.5852 11.254 28.2058C11.254 26.8265 10.1358 25.7083 8.75638 25.7083C7.377 25.7083 6.25879 26.8265 6.25879 28.2058C6.25879 29.5852 7.377 30.7034 8.75638 30.7034Z" fill="#727272"/>
<path d="M21.2437 30.7034C22.6231 30.7034 23.7413 29.5852 23.7413 28.2058C23.7413 26.8265 22.6231 25.7083 21.2437 25.7083C19.8643 25.7083 18.7461 26.8265 18.7461 28.2058C18.7461 29.5852 19.8643 30.7034 21.2437 30.7034Z" fill="#727272"/>
</g>
<defs>
<clipPath id="clip0_222_204">
<rect width="29.9711" height="29.9711" fill="white" transform="translate(0.0146484 0.7323)"/>
</clipPath>
</defs>
</svg>
