<svg width="30" height="30" viewBox="0 0 30 30" fill="none" xmlns="http://www.w3.org/2000/svg">
<path d="M17.1119 6.22586C17.138 5.81729 16.8783 5.44484 16.4859 5.32816C16.0935 5.21143 15.6724 5.38144 15.471 5.73796L9.36452 16.5472C9.21096 16.819 9.2133 17.152 9.37067 17.4217C9.52803 17.6914 9.81682 17.8572 10.1291 17.8572H13.2549L12.891 23.796C12.866 24.2039 13.1257 24.5752 13.5175 24.6915C13.9015 24.8075 14.3298 24.6409 14.5312 24.283L20.6145 13.5601C20.7687 13.2883 20.7668 12.955 20.6095 12.6849C20.4522 12.4148 20.1632 12.2487 19.8507 12.2487H16.7273L17.1119 6.22586Z" fill="#FF6D66"/>
<path d="M29.4812 11.1889C29.3575 10.7199 28.877 10.44 28.4081 10.5637C27.9391 10.6873 27.6593 11.1677 27.7829 11.6367C30.0612 19.8498 23.5271 28.3605 14.9896 28.2408C7.69426 28.2409 1.75902 22.3057 1.75902 15.0103C1.63503 6.4218 10.2603 -0.135744 18.4988 2.25666C18.6506 1.68728 18.8994 1.14236 19.2402 0.642055C9.79992 -2.2739 -0.117972 5.13011 0.00285986 15.0104C-0.163284 23.0657 6.93385 30.164 14.9898 29.9971C24.6852 30.1163 32.0618 20.5326 29.4812 11.1889Z" fill="#FF6D66"/>
<path d="M28.805 5.6898C29.0844 5.6898 29.3591 5.55679 29.5294 5.30921C29.8042 4.9096 29.7031 4.36287 29.3035 4.08807L28.1658 3.30559L27.1748 4.75563L28.3082 5.53519C28.4602 5.63968 28.6335 5.6898 28.805 5.6898Z" fill="#FF6D66"/>
<path d="M21.6111 6.54217L23.1179 7.5785L27.1146 1.73008L25.6252 0.705702C24.8482 0.171266 23.9066 -0.0281305 22.9745 0.144336C22.0422 0.316803 21.2344 0.839765 20.6999 1.6168C20.1655 2.39384 19.9662 3.33526 20.1386 4.26761C20.3111 5.19997 20.834 6.00774 21.6111 6.54217Z" fill="#FF6D66"/>
<path d="M25.9529 6.54372L24.9619 7.9937L26.0856 8.76658C26.4803 9.03939 27.0303 8.94321 27.3067 8.54072C27.5816 8.14111 27.4805 7.59438 27.0809 7.31958L25.9529 6.54372Z" fill="#FF6D66"/>
</svg>
