<svg width="25" height="22" viewBox="0 0 25 22" fill="none" xmlns="http://www.w3.org/2000/svg">
<path d="M9.34758 21.2457C9.12787 21.5051 8.81709 21.1968 8.90236 20.8377L10.5182 14.0411C10.6458 13.5307 10.4463 12.9944 10.0163 12.6913L6.44193 10.348C6.24811 10.1843 6.22172 9.89522 6.38278 9.69915L14.3329 0.747614C14.5568 0.49477 14.8733 0.821676 14.7658 1.18665L12.8143 7.80155C12.6494 8.3274 12.8439 8.8995 13.2952 9.21591L16.8695 11.5791C17.0602 11.7403 17.0888 12.0236 16.9341 12.2196L9.34758 21.2457Z" fill="#4BB7F3"/>
<path d="M22.0007 16.3792C22.0007 17.0647 21.4449 17.6205 20.7593 17.6205H13.4766L17.5702 12.7506C17.8038 12.4672 17.9053 12.0976 17.8491 11.7347C17.8043 11.391 17.6149 11.0827 17.3286 10.8873L13.7526 8.52576C13.6093 8.40698 13.5528 8.21296 13.6098 8.03582L14.6873 4.37915H20.7593C21.4449 4.37915 22.0007 4.93495 22.0007 5.62054V16.3792Z" fill="#4BB7F3"/>
<path d="M24.4833 13.0688C24.4833 13.2973 24.298 13.4826 24.0695 13.4826H22.8281V8.51709H24.0695C24.298 8.51709 24.4833 8.70234 24.4833 8.9309L24.4833 13.0688Z" fill="#4BB7F3"/>
<path d="M8.81752 17.6202L8.61891 18.4477H5.86303C5.63452 18.4477 5.44922 18.2625 5.44922 18.0339C5.44922 17.8054 5.63447 17.6201 5.86303 17.6201H8.81752V17.6202Z" fill="#4BB7F3"/>
<path d="M4.20789 18.4477H2.96655C2.73803 18.4477 2.55273 18.2625 2.55273 18.0339C2.55273 17.8054 2.73798 17.6201 2.96655 17.6201H4.20794C4.43645 17.6201 4.62175 17.8054 4.62175 18.0339C4.62175 18.2625 4.43645 18.4477 4.20789 18.4477Z" fill="#4BB7F3"/>
<path d="M6.55376 11.4136H0.897211C0.668695 11.4136 0.483398 11.2283 0.483398 10.9998C0.483398 10.7712 0.668648 10.5859 0.897211 10.5859H5.58963C5.67888 10.7705 5.81609 10.9277 5.98685 11.0411L6.55376 11.4136Z" fill="#4BB7F3"/>
<path d="M10.7381 3.55132L10.0056 4.37889H6.69116C6.46264 4.37889 6.27734 4.19364 6.27734 3.96508C6.27734 3.73652 6.46259 3.55127 6.69116 3.55127L10.7381 3.55132Z" fill="#4BB7F3"/>
<path d="M5.03504 4.37889H3.7937C3.56518 4.37889 3.37988 4.19364 3.37988 3.96508C3.37988 3.73652 3.56513 3.55127 3.7937 3.55127H5.03509C5.2636 3.55127 5.4489 3.73652 5.4489 3.96508C5.4489 4.19364 5.2636 4.37889 5.03504 4.37889Z" fill="#4BB7F3"/>
<path d="M8.53224 6.03398L7.7957 6.86156H1.72534C1.49682 6.86156 1.31152 6.67631 1.31152 6.44775C1.31152 6.21919 1.49677 6.03394 1.72534 6.03394H8.53224V6.03398Z" fill="#4BB7F3"/>
<path d="M6.69521 8.10356L5.95866 8.93114H5.03588C4.80737 8.93114 4.62207 8.74589 4.62207 8.51733C4.62207 8.28877 4.80732 8.10352 5.03588 8.10352H6.69521V8.10356Z" fill="#4BB7F3"/>
<path d="M3.38006 8.93065H2.55248C2.32397 8.93065 2.13867 8.7454 2.13867 8.51684C2.13867 8.28828 2.32392 8.10303 2.55248 8.10303H3.38006C3.60858 8.10303 3.79387 8.28828 3.79387 8.51684C3.79387 8.7454 3.60858 8.93065 3.38006 8.93065Z" fill="#4BB7F3"/>
<path d="M9.40921 15.1375L9.2106 15.9651H1.31127C1.08276 15.9651 0.897461 15.7798 0.897461 15.5513C0.897461 15.3227 1.08271 15.1375 1.31127 15.1375H9.40921V15.1375Z" fill="#4BB7F3"/>
<path d="M9.71473 13.8505L9.7023 13.896H6.27612C6.0476 13.896 5.8623 13.7107 5.8623 13.4822C5.8623 13.2536 6.04755 13.0684 6.27612 13.0684H9.08163L9.56163 13.3828C9.69874 13.4961 9.75832 13.6782 9.71473 13.8505Z" fill="#4BB7F3"/>
<path d="M4.6217 13.896H2.96655C2.73803 13.896 2.55273 13.7107 2.55273 13.4822C2.55273 13.2536 2.73798 13.0684 2.96655 13.0684H4.6217C4.85022 13.0684 5.03552 13.2536 5.03552 13.4822C5.03552 13.7107 4.85022 13.896 4.6217 13.896Z" fill="#4BB7F3"/>
</svg>
