<svg width="24" height="24" viewBox="0 0 24 24" fill="none" xmlns="http://www.w3.org/2000/svg">
<g clip-path="url(#clip0_262_741)">
<path d="M6.24 18.76C6.048 18.76 5.856 18.687 5.71 18.54C3.962 16.793 3 14.471 3 12C3 9.52899 3.962 7.20698 5.71 5.45998C6.003 5.16698 6.478 5.16698 6.771 5.45998C7.064 5.75298 7.064 6.22798 6.771 6.52098C5.306 7.98398 4.5 9.92999 4.5 12C4.5 14.07 5.306 16.016 6.771 17.479C7.064 17.771 7.064 18.247 6.771 18.54C6.624 18.687 6.432 18.76 6.24 18.76Z" fill="#4BB7F3"/>
<path d="M4.12 20.8799C3.928 20.8799 3.736 20.8069 3.59 20.6599C1.275 18.3449 0 15.2699 0 11.9999C0 8.72987 1.275 5.65487 3.59 3.33987C3.883 3.04687 4.358 3.04687 4.651 3.33987C4.944 3.63287 4.944 4.10787 4.651 4.40087C2.619 6.43187 1.5 9.13087 1.5 11.9999C1.5 14.8689 2.619 17.5679 4.65 19.5999C4.943 19.8929 4.943 20.3679 4.65 20.6609C4.504 20.8069 4.312 20.8799 4.12 20.8799Z" fill="#4BB7F3"/>
<path d="M19.8796 20.8799C19.6876 20.8799 19.4956 20.8069 19.3496 20.6599C19.0566 20.3669 19.0566 19.8919 19.3496 19.5989C21.3816 17.5669 22.4996 14.8689 22.4996 11.9989C22.4996 9.12891 21.3806 6.43091 19.3496 4.39891C19.0566 4.10591 19.0566 3.63091 19.3496 3.33791C19.6426 3.04491 20.1176 3.04491 20.4106 3.33791C22.7246 5.65491 23.9996 8.72991 23.9996 11.9999C23.9996 15.2699 22.7246 18.3449 20.4096 20.6599C20.2636 20.8069 20.0716 20.8799 19.8796 20.8799Z" fill="#4BB7F3"/>
<path d="M17.7595 18.76C17.5675 18.76 17.3755 18.687 17.2295 18.54C16.9365 18.247 16.9365 17.772 17.2295 17.479C18.6935 16.016 19.4995 14.07 19.4995 12C19.4995 9.92999 18.6935 7.98398 17.2285 6.52098C16.9355 6.22898 16.9355 5.75298 17.2285 5.45998C17.5215 5.16698 17.9965 5.16698 18.2895 5.45998C20.0375 7.20698 20.9995 9.52899 20.9995 12C20.9995 14.471 20.0375 16.793 18.2895 18.54C18.1435 18.687 17.9515 18.76 17.7595 18.76Z" fill="#4BB7F3"/>
<path d="M9.82293 19.9998C9.71593 19.9998 9.60693 19.9768 9.50493 19.9288C9.18093 19.7768 9.00893 19.4168 9.09493 19.0688L10.5409 13.2498H7.74993C7.46993 13.2498 7.21293 13.0938 7.08393 12.8448C6.95493 12.5958 6.97593 12.2958 7.13793 12.0668L12.6209 4.31682C12.8209 4.03482 13.1859 3.92582 13.5049 4.05082C13.8259 4.17582 14.0209 4.50282 13.9769 4.84382L13.3519 9.74982H16.2499C16.5329 9.74982 16.7919 9.90882 16.9189 10.1608C17.0469 10.4128 17.0219 10.7158 16.8549 10.9438L10.4279 19.6938C10.2829 19.8918 10.0559 19.9998 9.82293 19.9998Z" fill="#4BB7F3"/>
</g>
<defs>
<clipPath id="clip0_262_741">
<rect width="24" height="24" fill="white"/>
</clipPath>
</defs>
</svg>
