<svg width="281" height="235" viewBox="0 0 281 235" fill="none" xmlns="http://www.w3.org/2000/svg">
<g opacity="0.03">
<path d="M211.143 112.635H157.335L196.01 172.049L114.736 90.2151H157.335C143.725 60.4857 124.668 17.8198 87.3159 15.0621C60.5012 13.0892 38.888 20.8017 22.3418 42.1011C-21.8935 99.0711 20.167 185.12 91.1946 187.743V182.138L104.512 182.004C108.929 160.436 128.3 149.674 149.487 151.871V231.463C128.368 234.041 108.682 222.921 104.49 201.33L91.1722 201.196V195.591C30.4131 191.645 -3.73303 144.181 0.325047 85.1257C4.78669 20.3533 81.7332 -17.8733 138.838 8.35847C178.365 26.5189 192.669 76.8077 211.121 112.635H211.143Z" fill="#1E1E1E"/>
<path d="M239.729 148.508C256.791 150.795 266.858 165.704 269.369 181.645C271.163 182.945 275.333 181.645 277.642 182.138C278.09 182.25 280.893 186.533 285.646 184.291L286.319 187.609L293 188.371V195.591C286.588 193.774 286.902 197.294 285.153 198.371C284.772 198.595 278.046 201.061 277.62 201.173C275.624 201.644 268.786 200.702 268.315 201.196C268.069 213.168 261.903 224.916 251.141 230.544C249.213 231.553 241.231 234.826 239.729 234.826H215.627V220.253H175.831C168.141 220.253 168.926 203.438 173.589 203.438H215.627V181.017C204.529 183.573 201.413 169.964 195.449 163.081H215.627V148.508C223.206 149.225 232.375 147.521 239.729 148.508Z" fill="#1E1E1E"/>
<path d="M198.812 181.018H176.952C164.98 181.018 168.769 156.041 183.745 164.135L198.812 181.018Z" fill="#1E1E1E"/>
</g>
</svg>
