<svg width="18" height="18" viewBox="0 0 18 18" fill="none" xmlns="http://www.w3.org/2000/svg">
<path d="M3.81765 5.06193C4.60092 5.06193 5.23589 4.42696 5.23589 3.64369C5.23589 2.86042 4.60092 2.22546 3.81765 2.22546C3.03438 2.22546 2.39941 2.86042 2.39941 3.64369C2.39941 4.42696 3.03438 5.06193 3.81765 5.06193Z" fill="#4BB7F3"/>
<path d="M13.1819 5.06193C13.9652 5.06193 14.6001 4.42696 14.6001 3.64369C14.6001 2.86042 13.9652 2.22546 13.1819 2.22546C12.3986 2.22546 11.7637 2.86042 11.7637 3.64369C11.7637 4.42696 12.3986 5.06193 13.1819 5.06193Z" fill="#4BB7F3"/>
<path d="M5.5363 5.45433H2.09977C1.5133 5.45433 1.03613 5.85786 1.03613 6.35368V10.5989C1.03613 10.8663 1.29255 11.0831 1.60886 11.0831C1.92517 11.0831 2.18159 10.8663 2.18159 10.5989V6.42289H2.47564V10.8079V15.2905C2.47564 15.5579 2.73206 15.7747 3.04837 15.7747C3.36468 15.7747 3.6211 15.5579 3.6211 15.2905V11.1535H4.01513V15.2903C4.01513 15.5577 4.27155 15.7745 4.58786 15.7745C4.90417 15.7745 5.16059 15.5577 5.16059 15.2903V10.8079V6.42289H5.45464V10.5991C5.45464 10.8664 5.71106 11.0833 6.02737 11.0833C6.34368 11.0833 6.6001 10.8664 6.6001 10.5991V6.35368C6.59993 5.85786 6.12277 5.45433 5.5363 5.45433Z" fill="#4BB7F3"/>
<path d="M16.9346 10.506L15.9614 6.29792C15.9275 5.82796 15.4645 5.45422 14.9001 5.45422H11.4632C10.8988 5.45422 10.4357 5.82796 10.4019 6.29792L9.42873 10.506C9.36802 10.7685 9.57028 11.0226 9.88086 11.074C10.1926 11.1263 10.492 10.9544 10.5527 10.6917L11.5346 6.44651C11.5365 6.43865 11.538 6.43063 11.5391 6.42262H11.7401L10.5356 12.6586C10.5163 12.7591 10.55 12.8612 10.6277 12.9385C10.7057 13.0159 10.8195 13.0604 10.9394 13.0604H11.8394V15.2902C11.8394 15.5575 12.0958 15.7743 12.4121 15.7743C12.7285 15.7743 12.9849 15.5575 12.9849 15.2902V13.0607H13.3787V15.2904C13.3787 15.5578 13.635 15.7746 13.9515 15.7746C14.2679 15.7746 14.5242 15.5578 14.5242 15.2904V13.0607H15.4242C15.4255 13.0609 15.4268 13.0609 15.4275 13.0607C15.6535 13.0607 15.8366 12.9059 15.8366 12.7149C15.8366 12.6806 15.8308 12.6473 15.8196 12.6159L14.6232 6.42262H14.8242C14.8255 6.4308 14.8273 6.43865 14.8287 6.44651L15.8106 10.6917C15.8639 10.9226 16.1036 11.0831 16.3721 11.0831C16.4086 11.0831 16.4456 11.08 16.4828 11.074C16.7925 11.0228 16.9953 10.7686 16.9346 10.506Z" fill="#4BB7F3"/>
<path d="M8.0087 2.34814C7.78272 2.34814 7.59961 2.50294 7.59961 2.69406V15.2996C7.59961 15.4906 7.78272 15.6454 8.0087 15.6454C8.23468 15.6454 8.41779 15.4906 8.41779 15.2996V2.69406C8.41779 2.50294 8.23452 2.34814 8.0087 2.34814Z" fill="#4BB7F3"/>
</svg>
