<svg width="40" height="33" viewBox="0 0 40 33" fill="none" xmlns="http://www.w3.org/2000/svg">
<path d="M7.59673 7.29185C9.47151 7.29185 10.9913 5.77204 10.9913 3.89727C10.9913 2.02249 9.47151 0.502686 7.59673 0.502686C5.72195 0.502686 4.20215 2.02249 4.20215 3.89727C4.20215 5.77204 5.72195 7.29185 7.59673 7.29185Z" fill="#727272"/>
<path d="M30.0528 7.29185C31.9276 7.29185 33.4474 5.77204 33.4474 3.89727C33.4474 2.02249 31.9276 0.502686 30.0528 0.502686C28.178 0.502686 26.6582 2.02249 26.6582 3.89727C26.6582 5.77204 28.178 7.29185 30.0528 7.29185Z" fill="#727272"/>
<path d="M11.7097 8.23108H3.48432C2.08058 8.23108 0.938477 9.19693 0.938477 10.3837V20.5447C0.938477 21.1847 1.55222 21.7037 2.30931 21.7037C3.06641 21.7037 3.68015 21.1847 3.68015 20.5447V10.5494H4.38398V21.0449V31.7742C4.38398 32.4142 4.99772 32.9332 5.75481 32.9332C6.5119 32.9332 7.12565 32.4142 7.12565 31.7742V21.8721H8.06878V31.7738C8.06878 32.4138 8.68253 32.9328 9.43962 32.9328C10.1967 32.9328 10.8105 32.4138 10.8105 31.7738V21.0449V10.5494H11.5143V20.5451C11.5143 21.1851 12.128 21.7041 12.8851 21.7041C13.6422 21.7041 14.256 21.1851 14.256 20.5451V10.3837C14.2556 9.19693 13.1135 8.23108 11.7097 8.23108Z" fill="#727272"/>
<path d="M39.0351 20.3223L36.7059 10.2501C36.6248 9.12528 35.5164 8.23071 34.1655 8.23071H25.9393C24.5884 8.23071 23.48 9.12528 23.399 10.2501L21.0697 20.3223C20.9244 20.9505 21.4085 21.5588 22.1519 21.6818C22.898 21.8071 23.6148 21.3954 23.7601 20.7668L26.1101 10.6058C26.1148 10.587 26.1183 10.5678 26.121 10.5486H26.602L23.7189 25.4747C23.6727 25.7151 23.7534 25.9595 23.9395 26.1444C24.1263 26.3297 24.3985 26.4362 24.6856 26.4362H26.8397V31.7735C26.8397 32.413 27.4535 32.932 28.2106 32.932C28.9677 32.932 29.5814 32.413 29.5814 31.7735V26.437H30.5242V31.7738C30.5242 32.4138 31.1375 32.9328 31.895 32.9328C32.6525 32.9328 33.2658 32.4138 33.2658 31.7738V26.437H35.42C35.4231 26.4374 35.4263 26.4374 35.4278 26.437C35.9687 26.437 36.407 26.0665 36.407 25.6094C36.407 25.5271 36.3933 25.4476 36.3663 25.3724L33.5028 10.5486H33.9838C33.9869 10.5682 33.9912 10.587 33.9947 10.6058L36.3447 20.7668C36.4724 21.3195 37.0462 21.7037 37.6889 21.7037C37.7763 21.7037 37.8648 21.6962 37.9537 21.6818C38.6951 21.5592 39.1804 20.9509 39.0351 20.3223Z" fill="#727272"/>
<path d="M17.821 0.796387C17.2801 0.796387 16.8418 1.1669 16.8418 1.62437V31.7961C16.8418 32.2532 17.2801 32.6237 17.821 32.6237C18.3619 32.6237 18.8001 32.2532 18.8001 31.7961V1.62437C18.8001 1.1669 18.3615 0.796387 17.821 0.796387Z" fill="#727272"/>
</svg>
