<svg width="24" height="24" viewBox="0 0 24 24" fill="none" xmlns="http://www.w3.org/2000/svg">
<path d="M22.4852 10.8016H19.7936C19.4155 6.87812 16.3182 3.85533 12.3463 3.49854V0.76478C12.3463 0.342356 12.0179 0 11.5955 0C11.1731 0 10.8447 0.342356 10.8447 0.76478V3.50019C6.87289 3.86638 3.85533 6.87812 3.47791 10.8016H0.764828C0.342356 10.8016 0 11.2268 0 11.6492C0 12.0716 0.342356 12.4969 0.764828 12.4969H3.47273C3.81964 16.3234 6.87294 19.4512 10.8448 19.8196V22.4852C10.8448 22.9076 11.1732 23.25 11.5956 23.25C12.018 23.25 12.3464 22.9076 12.3464 22.4852V19.8212C16.3183 19.4622 19.4513 16.3234 19.799 12.4968H22.4853C22.9077 12.4968 23.2501 12.0716 23.2501 11.6492C23.25 11.2268 22.9076 10.8016 22.4852 10.8016ZM11.6358 18.3275C7.95925 18.3275 4.96814 15.3364 4.96814 11.6599C4.96814 7.98332 7.95925 4.99221 11.6358 4.99221C15.3124 4.99221 18.3034 7.98332 18.3034 11.6599C18.3034 15.3364 15.3124 18.3275 11.6358 18.3275Z" fill="#0084FF"/>
<path d="M11.6239 8.28308C9.76839 8.28308 8.25879 9.79268 8.25879 11.6482C8.25879 13.5038 9.76839 15.0134 11.6239 15.0134C13.4795 15.0134 14.9891 13.5038 14.9891 11.6482C14.9891 9.79268 13.4794 8.28308 11.6239 8.28308ZM11.6239 13.4838C10.6118 13.4838 9.7884 12.6604 9.7884 11.6482C9.7884 10.636 10.6118 9.81269 11.6239 9.81269C12.636 9.81269 13.4595 10.636 13.4595 11.6482C13.4595 12.6604 12.636 13.4838 11.6239 13.4838Z" fill="#0084FF"/>
</svg>
