<svg width="20" height="22" viewBox="0 0 20 22" fill="none" xmlns="http://www.w3.org/2000/svg">
<path fill-rule="evenodd" clip-rule="evenodd" d="M10 0.166992C10.5983 0.166992 11.0833 0.652022 11.0833 1.25033V12.0837C11.0833 12.682 10.5983 13.167 10 13.167C9.40168 13.167 8.91667 12.682 8.91667 12.0837V1.25033C8.91667 0.652022 9.40168 0.166992 10 0.166992ZM6.60441 4.03398C6.904 4.55188 6.72702 5.21459 6.20912 5.51417C3.93963 6.82701 2.41667 9.27815 2.41667 12.0837C2.41667 16.2718 5.81184 19.667 10 19.667C14.1882 19.667 17.5833 16.2718 17.5833 12.0837C17.5833 9.27815 16.0604 6.82701 13.7909 5.51417C13.273 5.21459 13.0961 4.55188 13.3956 4.03398C13.6951 3.51608 14.3579 3.33911 14.8758 3.6387C17.7872 5.32288 19.75 8.47342 19.75 12.0837C19.75 17.4685 15.3848 21.8337 10 21.8337C4.61523 21.8337 0.25 17.4685 0.25 12.0837C0.25 8.47342 2.21276 5.32288 5.12421 3.6387C5.64211 3.33911 6.30482 3.51608 6.60441 4.03398Z" fill="#FF7474"/>
</svg>
