<svg width="35" height="35" viewBox="0 0 35 35" fill="none" xmlns="http://www.w3.org/2000/svg">
<path d="M33.7979 29.7536L20.3153 16.279L4.56318 0.536255H3.33214L3.08077 1.17459C2.41734 2.85947 2.13387 4.58274 2.26113 6.15788C2.40619 7.95337 3.0887 9.50784 4.23499 10.6534L16.5319 22.943L18.1539 21.3221L29.5224 34.0266C30.6533 35.1569 32.5998 35.224 33.7979 34.0266C34.9768 32.8485 34.9768 30.9316 33.7979 29.7536Z" fill="#727272"/>
<path d="M10.8333 20.0967L1.2024 29.7218C0.0236785 30.8999 0.0236785 32.8168 1.2024 33.9948C2.32216 35.1139 4.25928 35.2127 5.47789 33.9948L15.1089 24.3695L10.8333 20.0967Z" fill="#727272"/>
<path d="M33.2323 6.25788L27.7691 11.7178L26.3439 10.2934L31.8071 4.83348L30.3819 3.40915L24.9187 8.86903L23.4936 7.44469L28.9568 1.98481L27.5316 0.560547L20.4057 7.68222C19.534 8.55345 19.0134 9.71026 18.9398 10.9397C18.9212 11.2512 18.8506 11.5576 18.7334 11.849L23.3624 16.4752C23.654 16.358 23.9606 16.2874 24.2722 16.2688C25.5024 16.1955 26.6599 15.6751 27.5316 14.8039L34.6576 7.68228L33.2323 6.25788Z" fill="#727272"/>
</svg>
