<svg width="16" height="16" viewBox="0 0 16 16" fill="none" xmlns="http://www.w3.org/2000/svg">
<path d="M14.7415 12.8653L8.80466 6.93199L1.86853 0H1.32647L1.21578 0.28108C0.923651 1.02298 0.798833 1.78179 0.85487 2.47537C0.918743 3.26598 1.21927 3.95046 1.72402 4.4549L7.13873 9.86638L7.85293 9.15261L12.8588 14.7468C13.3568 15.2445 14.2139 15.274 14.7415 14.7468C15.2605 14.228 15.2605 13.384 14.7415 12.8653Z" fill="#4BB7F3"/>
<path d="M4.63005 8.61303L0.38927 12.8513C-0.129757 13.37 -0.129757 14.2141 0.38927 14.7328C0.882334 15.2255 1.73531 15.269 2.2719 14.7328L6.51271 10.4945L4.63005 8.61303Z" fill="#4BB7F3"/>
<path d="M14.4927 2.51936L12.0871 4.92351L11.4595 4.29633L13.8651 1.89215L13.2376 1.26498L10.832 3.66912L10.2044 3.04195L12.6101 0.637798L11.9825 0.0106506L8.84477 3.14654C8.46091 3.53016 8.23171 4.03954 8.1993 4.5809C8.19111 4.71805 8.16 4.85296 8.1084 4.98128L10.1467 7.01835C10.2751 6.96672 10.4101 6.93566 10.5473 6.92748C11.089 6.89518 11.5987 6.66605 11.9825 6.28242L15.1203 3.14656L14.4927 2.51936Z" fill="#4BB7F3"/>
</svg>
