<svg width="28" height="27" viewBox="0 0 28 27" fill="none" xmlns="http://www.w3.org/2000/svg">
<g clip-path="url(#clip0_188_2343)">
<path d="M16.1929 7.73694C16.1929 8.17415 16.0632 8.60155 15.8203 8.96507C15.5774 9.3286 15.2322 9.61194 14.8282 9.77925C14.4243 9.94656 13.9798 9.99034 13.551 9.90504C13.1222 9.81975 12.7283 9.60921 12.4192 9.30006C12.11 8.9909 11.8995 8.59701 11.8142 8.1682C11.7289 7.73939 11.7727 7.29492 11.94 6.89099C12.1073 6.48706 12.3906 6.14182 12.7542 5.89891C13.1177 5.65601 13.5451 5.52636 13.9823 5.52636C14.5686 5.52636 15.1308 5.75926 15.5454 6.17383C15.96 6.58839 16.1929 7.15066 16.1929 7.73694ZM19.4623 13.4668L16.0823 16.8169C15.8081 17.0934 15.4818 17.3129 15.1223 17.4626C14.7628 17.6124 14.3772 17.6895 13.9878 17.6895C13.5984 17.6895 13.2128 17.6124 12.8533 17.4626C12.4938 17.3129 12.1675 17.0934 11.8933 16.8169L8.51552 13.4844C7.06512 11.9892 6.25286 9.98857 6.25038 7.90542C6.24791 5.82227 7.05541 3.81975 8.50226 2.32103C9.21336 1.58633 10.0649 1.00212 11.0064 0.603145C11.9478 0.204167 12.9598 -0.00143433 13.9823 -0.00143433C15.0048 -0.00143433 16.0168 0.204167 16.9582 0.603145C17.8996 1.00212 18.7512 1.58633 19.4623 2.32103C20.907 3.81652 21.7144 5.81458 21.7144 7.89389C21.7144 9.97321 20.907 11.9713 19.4623 13.4668ZM18.4034 7.73694C18.4034 6.86252 18.1441 6.00774 17.6583 5.28068C17.1725 4.55362 16.482 3.98695 15.6742 3.65233C14.8663 3.3177 13.9774 3.23015 13.1198 3.40074C12.2621 3.57133 11.4744 3.9924 10.8561 4.61071C10.2377 5.22902 9.81667 6.0168 9.64608 6.87442C9.47549 7.73204 9.56304 8.62099 9.89767 9.42885C10.2323 10.2367 10.799 10.9272 11.526 11.413C12.2531 11.8988 13.1079 12.1581 13.9823 12.1581C15.1548 12.1581 16.2794 11.6923 17.1085 10.8632C17.9376 10.034 18.4034 8.90951 18.4034 7.73694ZM23.6569 10.1686C23.2535 11.9953 22.3486 13.6734 21.044 15.0142L17.6419 18.3886C17.1633 18.8684 16.5948 19.2492 15.9689 19.5092C15.3431 19.7692 14.6721 19.9034 13.9944 19.904C13.3171 19.9042 12.6463 19.771 12.0205 19.5119C11.3947 19.2529 10.826 18.873 10.347 18.3941L6.96149 15.0528C5.67398 13.7311 4.77037 12.084 4.34748 10.2879C3.62959 10.5511 2.97319 10.9585 2.41875 11.485C1.87832 11.9988 1.44872 12.6177 1.15638 13.3037C0.864035 13.9897 0.715128 14.7283 0.718817 15.474V19.978C0.72114 21.1732 1.10986 22.3356 1.82697 23.2917C2.54408 24.2479 3.55113 24.9465 4.69786 25.2834L7.87003 26.2782C8.40285 26.444 8.95779 26.5278 9.51581 26.5269C10.022 26.5262 10.5258 26.457 11.0135 26.3213L17.402 24.4312C17.9711 24.2753 18.5716 24.2753 19.1407 24.4312L21.779 25.3155C22.4292 25.4737 23.1069 25.4823 23.761 25.3406C24.415 25.1989 25.0283 24.9105 25.5547 24.4972C26.0811 24.084 26.5068 23.5566 26.7997 22.9549C27.0927 22.3532 27.2452 21.6928 27.2457 21.0236V15.3325C27.242 14.2093 26.8966 13.1138 26.2556 12.1915C25.6146 11.2692 24.7083 10.5637 23.6569 10.1686Z" fill="#4BB7F3"/>
</g>
<defs>
<clipPath id="clip0_188_2343">
<rect width="26.5269" height="26.5269" fill="white" transform="translate(0.71875)"/>
</clipPath>
</defs>
</svg>
