<svg width="16" height="17" viewBox="0 0 16 17" fill="none" xmlns="http://www.w3.org/2000/svg">
<path fill-rule="evenodd" clip-rule="evenodd" d="M3.15641 15.9859C3.28016 16.0999 3.46984 16.0999 3.59359 15.9859C3.59359 15.9859 4.72339 14.9414 5.62661 13.4841C6.24375 12.4891 6.75 11.3037 6.75 10.125C6.75 8.26232 5.23768 6.75 3.375 6.75C1.51232 6.75 0 8.26232 0 10.125C0 11.3037 0.506248 12.4891 1.12339 13.4841C2.02661 14.9414 3.15641 15.9859 3.15641 15.9859ZM6.35626 15.4286H5.07054C4.89376 15.4286 4.74911 15.5726 4.74911 15.75C4.74911 15.9274 4.89376 16.0714 5.07054 16.0714H6.35626C6.53465 16.0714 6.67769 15.9274 6.67769 15.75C6.67769 15.5726 6.53465 15.4286 6.35626 15.4286ZM8.92769 15.4286C8.48572 15.4286 8.0534 15.4286 7.64197 15.4286C7.46519 15.4286 7.32054 15.5726 7.32054 15.75C7.32054 15.9274 7.46519 16.0714 7.64197 16.0714H8.92769C9.10608 16.0714 9.24911 15.9274 9.24911 15.75C9.24911 15.5726 9.10608 15.4286 8.92769 15.4286ZM11.4991 15.4286C11.0829 15.4286 10.6489 15.4286 10.2134 15.4286C10.0366 15.4286 9.89197 15.5726 9.89197 15.75C9.89197 15.9274 10.0366 16.0714 10.2134 16.0714H11.4991C11.6775 16.0714 11.8205 15.9274 11.8205 15.75C11.8205 15.5726 11.6775 15.4286 11.4991 15.4286ZM13.8246 15.0985C13.5193 15.2945 13.1593 15.4131 12.7736 15.4271C12.5968 15.4336 12.457 15.5827 12.465 15.76C12.4714 15.9374 12.6193 16.0761 12.7977 16.0697C13.3023 16.0513 13.7732 15.8958 14.1718 15.6394C14.3212 15.5435 14.3646 15.3445 14.2682 15.1952C14.1718 15.0459 13.9741 15.0027 13.8246 15.0985ZM14.7809 13.2014C14.7841 13.247 14.7857 13.293 14.7857 13.3393C14.7857 13.6779 14.7054 13.9977 14.5623 14.2806C14.482 14.4389 14.5462 14.6324 14.7037 14.7124C14.8629 14.7925 15.0557 14.729 15.1361 14.5707C15.3225 14.2006 15.4286 13.7822 15.4286 13.3393C15.4286 13.279 15.427 13.2191 15.4221 13.1598C15.4109 12.9827 15.2582 12.8483 15.0814 12.8599C14.9047 12.8713 14.7696 13.0244 14.7809 13.2014ZM13.5836 11.447C13.9227 11.6063 14.212 11.8544 14.4225 12.1613C14.5221 12.3077 14.723 12.3451 14.8693 12.245C15.0155 12.1449 15.0525 11.9446 14.9529 11.7982C14.678 11.3974 14.3004 11.0734 13.8568 10.8651C13.6961 10.7897 13.5048 10.8588 13.4293 11.0194C13.3538 11.1799 13.4229 11.3715 13.5836 11.447ZM3.375 8.67857C4.17375 8.67857 4.82143 9.32674 4.82143 10.125C4.82143 10.9233 4.17375 11.5714 3.375 11.5714C2.57625 11.5714 1.92857 10.9233 1.92857 10.125C1.92857 9.32674 2.57625 8.67857 3.375 8.67857ZM8.48733 10.8654C8.82001 11.1136 9.225 11.25 9.64286 11.25H9.8968C10.0736 11.25 10.2182 11.106 10.2182 10.9286C10.2182 10.7511 10.0736 10.6071 9.8968 10.6071H9.64286C9.36321 10.6071 9.09321 10.5162 8.87303 10.3506C8.7316 10.2444 8.52909 10.2733 8.42302 10.4154C8.31695 10.5575 8.3459 10.759 8.48733 10.8654ZM11.1825 11.25H12.4682C12.645 11.25 12.7897 11.106 12.7897 10.9286C12.7897 10.7511 12.645 10.6071 12.4682 10.6071H11.1825C11.0041 10.6071 10.8611 10.7511 10.8611 10.9286C10.8611 11.106 11.0041 11.25 11.1825 11.25ZM8.13216 8.12138C7.87019 8.451 7.71429 8.86806 7.71429 9.32143C7.71429 9.40452 7.71912 9.48697 7.73037 9.56829C7.75287 9.74427 7.91359 9.86866 8.09037 9.846C8.26555 9.82318 8.3909 9.66199 8.3684 9.486C8.36037 9.43168 8.35714 9.37672 8.35714 9.32143C8.35714 9.01913 8.46161 8.74093 8.63678 8.52124C8.74607 8.38238 8.72356 8.17988 8.58374 8.06963C8.44552 7.95922 8.24305 7.98236 8.13216 8.12138ZM10.7679 7.39013C10.7679 7.39013 10.2359 7.39061 9.64125 7.39125C9.57696 7.39125 9.51269 7.39463 9.45001 7.4009C9.27322 7.41841 9.14464 7.57607 9.16232 7.75254C9.18 7.929 9.33749 8.05806 9.51428 8.04054C9.55606 8.03636 9.59946 8.03411 9.64286 8.03411C10.2359 8.03347 10.7679 8.03299 10.7679 8.03299C10.9462 8.03282 11.0893 7.88866 11.0893 7.71124C11.0893 7.53381 10.9446 7.38997 10.7679 7.39013ZM12.4778 7.95247C12.6 8.06352 12.7864 8.06352 12.9086 7.95247C12.9086 7.95247 13.8069 7.14006 14.5253 6.00638C15.0187 5.22627 15.4221 4.29606 15.4221 3.37195C15.4221 1.86574 14.1991 0.64286 12.6932 0.64286C11.1873 0.64286 9.96429 1.86574 9.96429 3.37195C9.96429 4.29606 10.3677 5.22627 10.8611 6.00638C11.5795 7.14006 12.4778 7.95247 12.4778 7.95247ZM12.6932 2.25C13.3152 2.25 13.8182 2.75416 13.8182 3.375C13.8182 3.99584 13.3152 4.5 12.6932 4.5C12.0729 4.5 11.5682 3.99584 11.5682 3.375C11.5682 2.75416 12.0729 2.25 12.6932 2.25Z" fill="white"/>
</svg>
