<svg width="21" height="21" viewBox="0 0 21 21" fill="none" xmlns="http://www.w3.org/2000/svg">
<path d="M18.8832 13.6727C17.6489 13.6727 16.437 13.4797 15.2886 13.1002C14.7258 12.9082 14.034 13.0843 13.6906 13.4371L11.4238 15.1482C8.79495 13.745 7.17564 12.1262 5.79153 9.51709L7.45237 7.30936C7.88386 6.87844 8.03863 6.24897 7.8532 5.65834C7.47205 4.50387 7.27843 3.29254 7.27843 2.05774C7.27849 1.16571 6.55278 0.440002 5.6608 0.440002H1.9585C1.06653 0.440002 0.34082 1.16571 0.34082 2.05768C0.34082 12.2821 8.65882 20.6 18.8832 20.6C19.7752 20.6 20.5009 19.8743 20.5009 18.9823V15.2904C20.5008 14.3984 19.7751 13.6727 18.8832 13.6727Z" fill="white"/>
</svg>
