<svg width="35" height="35" viewBox="0 0 35 35" fill="none" xmlns="http://www.w3.org/2000/svg">
<path d="M16.4078 22.0601C17.2048 23.0517 18.4632 23.2521 19.3355 22.5265C19.7844 22.1532 20.082 21.584 20.1523 20.9651C20.2198 20.369 20.0747 19.7902 19.7438 19.3354L18.4377 17.5364L14.9629 20.2634L16.4078 22.0601Z" fill="#727272"/>
<path d="M13.4473 19.6333L11.2154 16.858C11.0771 16.6861 11.0917 16.4237 11.248 16.2718C11.4042 16.1197 11.6428 16.1358 11.7811 16.3076L14.0978 19.1886L14.099 19.1899C14.1051 19.1969 14.111 19.2039 14.1164 19.2114L14.1169 19.2122L14.1179 19.2135L14.4594 19.638L17.9653 16.8863L13.5337 10.782L13.5299 10.777C13.529 10.7755 13.5278 10.7742 13.5269 10.7726C13.524 10.769 13.5214 10.7651 13.5191 10.7612C13.5156 10.7557 13.512 10.7503 13.5089 10.7448C13.5049 10.7383 13.5012 10.7316 13.4976 10.7249C13.4953 10.7205 13.4929 10.716 13.491 10.7114C13.4882 10.7056 13.4856 10.6999 13.4832 10.6942C13.4757 10.6771 13.4695 10.6592 13.4643 10.6413C13.4632 10.6374 13.4622 10.6335 13.4613 10.6293C13.4589 10.6208 13.457 10.6119 13.4554 10.6031C13.4542 10.5977 13.4533 10.592 13.4525 10.5862C13.4518 10.5818 13.4511 10.5774 13.4507 10.5727C13.4502 10.5678 13.4495 10.5629 13.449 10.558C13.4485 10.5517 13.4481 10.5455 13.4478 10.5392C13.4476 10.5322 13.4473 10.5252 13.4473 10.5182V10.2986C13.4473 9.73764 13.0324 9.28101 12.5224 9.28101H8.70162C7.05142 9.28101 5.70898 10.7576 5.70898 12.5726V20.9887H13.4473V19.6333Z" fill="#727272"/>
<path d="M33.6801 32.6993H1.32C0.767723 32.6993 0.318359 33.1923 0.318359 33.7979C0.318359 34.4054 0.767723 34.8996 1.32 34.8996H33.6801C34.2324 34.8996 34.6818 34.4054 34.6818 33.7979C34.6818 33.1923 34.2324 32.6993 33.6801 32.6993Z" fill="#727272"/>
<path d="M5.18967 31.8688H7.23165V27.6655C7.06739 27.58 6.90949 27.4822 6.75844 27.3734H5.18967C4.06366 27.3734 3.14746 28.3812 3.14746 29.6197C3.14746 30.8597 4.06366 31.8688 5.18967 31.8688Z" fill="#727272"/>
<path d="M7.06108 26.5953C7.08256 26.6086 7.10285 26.6242 7.12151 26.6418C7.30536 26.7796 7.50291 26.8972 7.7113 26.9909C7.73703 26.999 7.76157 27.0096 7.7847 27.0231C8.14084 27.1729 8.52743 27.255 8.93102 27.255H17.2415C17.4501 27.255 17.6191 27.4408 17.6191 27.6703C17.6191 27.8998 17.4501 28.0857 17.2415 28.0857H8.93102C8.6058 28.0857 8.28955 28.0426 7.98674 27.961V31.8689H19.6505C21.3984 31.8689 22.8204 30.3049 22.8204 28.3821C22.8204 27.5833 22.5388 26.9463 21.9339 26.3778C21.3578 25.8363 20.5737 25.4248 19.7437 24.9895C19.6583 24.9446 19.5726 24.8997 19.4872 24.8545L13.7388 21.8193H5.70898V23.711C5.70898 24.8989 6.24307 25.9521 7.06108 26.5953Z" fill="#727272"/>
<path d="M14.1707 3.91227C13.9141 2.00479 12.4166 0.536255 10.6135 0.536255C9.38601 0.536255 8.30012 1.21586 7.65039 2.25086C8.42545 2.42998 9.19439 2.77655 9.9435 3.28508C11.1422 4.09762 12.563 4.30816 14.1707 3.91227Z" fill="#727272"/>
<path d="M10.6134 8.45017C12.517 8.45017 14.0797 6.81499 14.2017 4.75487C13.6714 4.87557 13.154 4.93606 12.6549 4.93606C12.497 4.93606 12.3412 4.93008 12.1871 4.91789C11.2296 4.84235 10.3413 4.53085 9.54682 3.99244C8.80056 3.4857 8.03729 3.15862 7.2745 3.01819C7.10693 3.47483 7.01465 3.97322 7.01465 4.49502C7.01465 6.67584 8.62897 8.45017 10.6134 8.45017Z" fill="#727272"/>
</svg>
