<svg width="17" height="17" viewBox="0 0 17 17" fill="none" xmlns="http://www.w3.org/2000/svg">
<path d="M7.55327 10.1039C7.92741 10.5694 8.51815 10.6635 8.92764 10.3229C9.13836 10.1476 9.27807 9.8804 9.31109 9.58989C9.34277 9.31009 9.27464 9.03834 9.11931 8.82485L8.50619 7.98035L6.875 9.2605L7.55327 10.1039Z" fill="#4BB7F3"/>
<path d="M6.1629 8.96459L5.11515 7.66177C5.05022 7.5811 5.05709 7.4579 5.13044 7.38661C5.20378 7.3152 5.31579 7.32275 5.38071 7.40342L6.46824 8.75584L6.46879 8.75645C6.47167 8.75975 6.47444 8.76304 6.477 8.76657L6.47722 8.76694L6.47766 8.76755L6.63797 8.96679L8.28378 7.67507L6.20345 4.80951L6.20167 4.8072C6.20123 4.80647 6.20067 4.80586 6.20023 4.80513C6.1989 4.80342 6.19768 4.8016 6.19658 4.79977C6.19492 4.79721 6.19325 4.79465 6.19181 4.79209C6.18993 4.78904 6.18816 4.78587 6.1865 4.78271C6.18539 4.78064 6.18428 4.77856 6.1834 4.77637C6.18206 4.77369 6.18085 4.77101 6.17974 4.76833C6.17619 4.76029 6.17332 4.75188 6.17088 4.74347C6.17032 4.74164 6.16988 4.73981 6.16944 4.73787C6.16833 4.73385 6.16745 4.7297 6.16667 4.72557C6.16611 4.72301 6.16567 4.72032 6.16534 4.71764C6.165 4.71557 6.16467 4.71349 6.16445 4.7113C6.16423 4.70899 6.1639 4.70667 6.16368 4.70436C6.16346 4.70143 6.16323 4.69851 6.16312 4.69558C6.163 4.69229 6.1629 4.68899 6.1629 4.68571V4.58262C6.1629 4.31928 5.96813 4.10492 5.72871 4.10492H3.93511C3.16045 4.10492 2.53027 4.79806 2.53027 5.65012V9.60085H6.1629V8.96459Z" fill="#4BB7F3"/>
<path d="M15.661 15.0983H0.4702C0.210945 15.0983 0 15.3297 0 15.614C0 15.8992 0.210945 16.1312 0.4702 16.1312H15.661C15.9203 16.1312 16.1312 15.8992 16.1312 15.614C16.1312 15.3297 15.9203 15.0983 15.661 15.0983Z" fill="#4BB7F3"/>
<path d="M2.2868 14.7084H3.24537V12.7352C3.16826 12.6951 3.09414 12.6492 3.02323 12.5981H2.2868C1.75822 12.5981 1.32812 13.0712 1.32812 13.6526C1.32812 14.2347 1.75822 14.7084 2.2868 14.7084Z" fill="#4BB7F3"/>
<path d="M3.16499 12.2328C3.17507 12.2391 3.1846 12.2464 3.19336 12.2546C3.27966 12.3194 3.37239 12.3746 3.47022 12.4186C3.4823 12.4223 3.49382 12.4273 3.50468 12.4337C3.67186 12.504 3.85334 12.5425 4.0428 12.5425H7.94398C8.04192 12.5425 8.12125 12.6297 8.12125 12.7375C8.12125 12.8452 8.04192 12.9324 7.94398 12.9324H4.0428C3.89013 12.9324 3.74167 12.9122 3.59952 12.8739V14.7084H9.07484C9.89536 14.7084 10.5629 13.9742 10.5629 13.0716C10.5629 12.6966 10.4307 12.3976 10.1467 12.1307C9.87631 11.8765 9.50825 11.6834 9.1186 11.479C9.07849 11.4579 9.03828 11.4368 8.99817 11.4156L6.29973 9.99084H2.53027V10.8788C2.53027 11.4365 2.78099 11.9309 3.16499 12.2328Z" fill="#4BB7F3"/>
<path d="M6.50223 1.58481C6.38181 0.689377 5.67883 0 4.83239 0C4.25616 0 3.74641 0.319027 3.44141 0.804891C3.80524 0.888973 4.16621 1.05166 4.51786 1.29039C5.08056 1.67181 5.74753 1.77065 6.50223 1.58481Z" fill="#4BB7F3"/>
<path d="M4.8329 3.71496C5.72655 3.71496 6.4601 2.94736 6.51738 1.98028C6.26842 2.03694 6.02557 2.06533 5.79125 2.06533C5.71713 2.06533 5.64401 2.06252 5.57166 2.0568C5.12218 2.02134 4.70517 1.87511 4.33224 1.62237C3.98192 1.38449 3.62362 1.23095 3.26554 1.16502C3.18688 1.37938 3.14355 1.61335 3.14355 1.85829C3.14355 2.88204 3.90137 3.71496 4.8329 3.71496Z" fill="#4BB7F3"/>
</svg>
