<svg width="25" height="24" viewBox="0 0 25 24" fill="none" xmlns="http://www.w3.org/2000/svg">
<g clip-path="url(#clip0_246_1806)">
<path d="M19.0973 7.21411H5.86948C2.89957 7.21411 0.483398 9.63033 0.483398 12.6002C0.483398 15.5701 2.89957 17.9863 5.86948 17.9863H19.0973C22.0672 17.9863 24.4834 15.5701 24.4834 12.6002C24.4834 9.63033 22.0672 7.21411 19.0973 7.21411ZM19.0973 16.5801H5.86948C3.67502 16.5801 1.88965 14.7947 1.88965 12.6002C1.88965 10.4057 3.67502 8.62036 5.86948 8.62036H19.0973C21.2917 8.62036 23.0771 10.4057 23.0771 12.6002C23.0771 14.7947 21.2918 16.5801 19.0973 16.5801Z" fill="#4BB7F3"/>
<path d="M21.2021 11.8968H9.28207C8.97523 10.8187 7.98218 10.0266 6.80698 10.0266C5.63177 10.0266 4.63877 10.8187 4.33193 11.8968H3.76465C3.37634 11.8968 3.06152 12.2116 3.06152 12.6C3.06152 12.9883 3.37634 13.3031 3.76465 13.3031H4.33179C4.63849 14.3814 5.63163 15.1738 6.80702 15.1738C7.98241 15.1738 8.97555 14.3814 9.28226 13.3031H21.2021C21.5905 13.3031 21.9053 12.9883 21.9053 12.6C21.9053 12.2116 21.5905 11.8968 21.2021 11.8968ZM6.80698 13.7675C6.16334 13.7675 5.63965 13.2438 5.63965 12.6002C5.63965 11.9565 6.16334 11.4329 6.80698 11.4329C7.45062 11.4329 7.9743 11.9565 7.9743 12.6002C7.9743 13.2438 7.45066 13.7675 6.80698 13.7675Z" fill="#4BB7F3"/>
<path d="M6.02832 19.5005C5.64001 19.5005 5.3252 19.8153 5.3252 20.2036V21.5019C5.3252 21.8902 5.64001 22.205 6.02832 22.205C6.41663 22.205 6.73144 21.8902 6.73144 21.5019V20.2036C6.73144 19.8153 6.41663 19.5005 6.02832 19.5005Z" fill="#4BB7F3"/>
<path d="M2.80078 19.5005C2.41247 19.5005 2.09766 19.8153 2.09766 20.2036V21.5019C2.09766 21.8902 2.41247 22.205 2.80078 22.205C3.18909 22.205 3.50391 21.8902 3.50391 21.5019V20.2036C3.50391 19.8153 3.18909 19.5005 2.80078 19.5005Z" fill="#4BB7F3"/>
<path d="M9.25586 19.5005C8.86755 19.5005 8.55273 19.8153 8.55273 20.2036V21.5019C8.55273 21.8902 8.86755 22.205 9.25586 22.205C9.64417 22.205 9.95898 21.8902 9.95898 21.5019V20.2036C9.95898 19.8153 9.64417 19.5005 9.25586 19.5005Z" fill="#4BB7F3"/>
<path d="M12.4834 19.5005C12.0951 19.5005 11.7803 19.8153 11.7803 20.2036V21.5019C11.7803 21.8902 12.0951 22.205 12.4834 22.205C12.8717 22.205 13.1865 21.8902 13.1865 21.5019V20.2036C13.1865 19.8153 12.8717 19.5005 12.4834 19.5005Z" fill="#4BB7F3"/>
<path d="M15.7109 19.5005C15.3226 19.5005 15.0078 19.8153 15.0078 20.2036V21.5019C15.0078 21.8902 15.3226 22.205 15.7109 22.205C16.0993 22.205 16.4141 21.8902 16.4141 21.5019V20.2036C16.4141 19.8153 16.0993 19.5005 15.7109 19.5005Z" fill="#4BB7F3"/>
<path d="M18.9385 19.5005C18.5502 19.5005 18.2354 19.8153 18.2354 20.2036V21.5019C18.2354 21.8902 18.5502 22.205 18.9385 22.205C19.3268 22.205 19.6416 21.8902 19.6416 21.5019V20.2036C19.6416 19.8153 19.3268 19.5005 18.9385 19.5005Z" fill="#4BB7F3"/>
<path d="M22.166 19.5005C21.7777 19.5005 21.4629 19.8153 21.4629 20.2036V21.5019C21.4629 21.8902 21.7777 22.205 22.166 22.205C22.5543 22.205 22.8691 21.8902 22.8691 21.5019V20.2036C22.8691 19.8153 22.5543 19.5005 22.166 19.5005Z" fill="#4BB7F3"/>
<path d="M24.2771 3.52966L22.7483 2.00083C22.4737 1.72629 22.0285 1.72629 21.7539 2.00083C21.4793 2.27538 21.4793 2.7206 21.7539 2.99519L22.0826 3.32383H2.88379L3.21243 2.99519C3.48702 2.72064 3.48702 2.27543 3.21243 2.00083C2.93788 1.72629 2.49266 1.72629 2.21807 2.00083L0.689239 3.52966C0.413848 3.80496 0.415723 4.25083 0.689239 4.52425L2.21807 6.05304C2.49257 6.32763 2.93779 6.32768 3.21243 6.05304C3.48702 5.77844 3.48702 5.33327 3.21243 5.05868L2.88383 4.73008H22.0826L21.754 5.05868C21.4794 5.33322 21.4794 5.77839 21.754 6.05304C22.0285 6.32763 22.4737 6.32768 22.7483 6.05304L24.2772 4.52425C24.5543 4.24718 24.5485 3.80097 24.2771 3.52966Z" fill="#4BB7F3"/>
</g>
<defs>
<clipPath id="clip0_246_1806">
<rect width="24" height="24" fill="white" transform="translate(0.483398)"/>
</clipPath>
</defs>
</svg>
