<svg width="25" height="16" viewBox="0 0 25 16" fill="none" xmlns="http://www.w3.org/2000/svg">
<path d="M24.4793 14.728C24.4775 14.6759 24.4757 14.6235 24.4738 14.5709C24.4719 14.5183 24.47 14.4655 24.4681 14.4125L24.4665 14.3729L24.4658 14.353L24.4656 14.348L24.4651 14.3035L24.4649 14.3015L24.4643 14.2932L24.4592 14.2274C24.4524 14.1395 24.4455 14.0512 24.4387 13.9629L24.4334 13.8961L24.4256 13.8095C24.4201 13.7518 24.4147 13.6942 24.4092 13.6368C24.4036 13.5794 24.398 13.5221 24.3923 13.465C24.3894 13.4365 24.3866 13.408 24.3837 13.3796C24.3802 13.3533 24.3767 13.327 24.3732 13.3008C24.3444 13.0926 24.3188 12.8879 24.2821 12.6912C24.2647 12.5928 24.2487 12.496 24.2308 12.4017C24.2111 12.3076 24.1919 12.2156 24.1732 12.126C24.1378 11.9466 24.0933 11.7792 24.0558 11.6244C24.0462 11.5857 24.0368 11.5478 24.0277 11.5109C24.0175 11.4741 24.0075 11.4382 23.9977 11.4032C23.978 11.3333 23.9593 11.267 23.9416 11.2047C23.9237 11.1425 23.9079 11.0842 23.8914 11.0307C23.8743 10.9773 23.8587 10.9283 23.8446 10.8841C23.8236 10.819 23.806 10.7643 23.7921 10.721C23.7715 10.6571 23.704 10.6212 23.6394 10.6396L19.5818 11.7959C19.52 11.8135 19.4817 11.8751 19.4934 11.9383C19.4978 11.9619 19.5029 11.9889 19.5085 12.0192C19.5143 12.0496 19.5207 12.0834 19.5277 12.1201C19.5342 12.1569 19.5394 12.1972 19.5461 12.2398C19.5526 12.2825 19.5595 12.3279 19.5668 12.3758C19.5704 12.3997 19.5746 12.4241 19.5779 12.4493C19.5808 12.4746 19.5837 12.5005 19.5867 12.5269C19.598 12.6326 19.6149 12.7459 19.6224 12.8674C19.6274 12.9279 19.6326 12.99 19.6378 13.0534C19.6418 13.117 19.6437 13.1822 19.6471 13.2481C19.6559 13.3798 19.6542 13.517 19.6568 13.6553L19.6574 13.7068L19.6555 13.7524C19.6545 13.7828 19.6534 13.8132 19.6524 13.8437C19.6516 13.8741 19.6508 13.9046 19.6499 13.9352L19.649 13.9808L19.6462 14.0466C19.6425 14.135 19.6386 14.2234 19.6349 14.3116L19.6321 14.3776L19.6317 14.3858L19.6316 14.3878C19.6317 14.3978 19.6309 14.3092 19.6311 14.3475L19.6308 14.3507L19.6296 14.3638L19.6272 14.3898C19.624 14.4245 19.6209 14.459 19.6178 14.4934C19.6148 14.5278 19.6118 14.562 19.6088 14.5961C19.6048 14.63 19.6008 14.6637 19.5967 14.6972C19.5881 14.7642 19.5828 14.8305 19.5721 14.8951C19.5628 14.9597 19.5536 15.0232 19.5446 15.0854C19.5338 15.1472 19.5233 15.2076 19.5131 15.2665C19.5039 15.3253 19.4915 15.382 19.4805 15.4369C19.469 15.4917 19.4598 15.5448 19.4478 15.5953C19.4362 15.6458 19.425 15.6941 19.4144 15.7401C19.4091 15.7628 19.404 15.7849 19.3991 15.8064C19.394 15.8248 19.3891 15.8427 19.3842 15.8601C19.3814 15.8707 19.3787 15.8806 19.376 15.8909H24.3386C24.4052 15.8909 24.4606 15.8387 24.4631 15.7723C24.4631 15.7718 24.4631 15.7715 24.4631 15.7711C24.4672 15.6787 24.4715 15.5838 24.4758 15.4868C24.4777 15.3898 24.4796 15.2908 24.4815 15.1901C24.4843 15.0895 24.4813 14.9873 24.481 14.8839C24.4804 14.8322 24.4799 14.7803 24.4793 14.728Z" fill="#4BB7F3"/>
<path d="M23.1897 9.51908C23.2562 9.49227 23.2866 9.41517 23.2559 9.35032C23.2423 9.32149 23.2263 9.28779 23.2083 9.24967C23.1912 9.21385 23.1724 9.17418 23.1519 9.13101C23.1254 9.07702 23.0967 9.01866 23.0661 8.95629C23.0352 8.89417 23.0024 8.82805 22.9677 8.75838C22.9502 8.72215 22.9329 8.69226 22.9149 8.65826C22.8969 8.62501 22.8785 8.59101 22.8596 8.55627C22.8218 8.48695 22.7831 8.41447 22.7416 8.34025C22.6988 8.26683 22.6545 8.19089 22.6089 8.11283C22.5861 8.0739 22.5629 8.03441 22.5395 7.9945C22.5149 7.95519 22.4901 7.9154 22.465 7.87518C22.4146 7.79507 22.363 7.71319 22.3106 7.62998C22.2 7.46703 22.09 7.2966 21.9671 7.13075C21.9369 7.08899 21.9066 7.04708 21.8762 7.00504L21.8305 6.94204L21.7829 6.88007C21.7192 6.79763 21.6553 6.71492 21.5914 6.63218C21.5263 6.55041 21.459 6.47035 21.3931 6.38999C21.3597 6.35007 21.3274 6.30957 21.2934 6.27057C21.2593 6.23169 21.2252 6.19291 21.1913 6.15428C21.1574 6.11581 21.1236 6.07741 21.09 6.03923C21.0566 6.00091 21.0229 5.96324 20.9881 5.92681C20.9193 5.85352 20.8513 5.78115 20.7845 5.70993C20.7175 5.63894 20.6482 5.57222 20.5823 5.50553C20.5158 5.43918 20.4512 5.37403 20.3853 5.31353C20.3201 5.25249 20.2566 5.19312 20.1953 5.13567C20.1342 5.0781 20.0718 5.0258 20.0137 4.97402C19.9551 4.92278 19.899 4.8737 19.8456 4.82701C19.7908 4.78186 19.7388 4.73907 19.69 4.69885C19.6412 4.65878 19.5955 4.62129 19.5532 4.58663C19.5109 4.5521 19.4704 4.52216 19.4347 4.49424C19.3827 4.45435 19.3388 4.42065 19.3039 4.39387C19.2507 4.35305 19.1749 4.36176 19.1322 4.41348L16.9544 7.04958C16.9133 7.0993 16.9168 7.17196 16.9626 7.21733C16.9808 7.23532 17.0019 7.25613 17.0255 7.27955C17.0482 7.30231 17.0741 7.32641 17.1008 7.35456C17.1274 7.38268 17.1561 7.41312 17.1869 7.44561C17.2177 7.47794 17.2504 7.51235 17.2849 7.54863C17.3182 7.58607 17.3532 7.6255 17.3897 7.66661C17.4257 7.70809 17.4651 7.74927 17.5026 7.7952C17.5404 7.84067 17.5795 7.88766 17.6198 7.93599C17.6607 7.98343 17.6998 8.03494 17.7403 8.08698C17.7803 8.13938 17.8231 8.19104 17.8633 8.24645C17.9036 8.30167 17.9445 8.35781 17.9859 8.41465C18.007 8.44261 18.027 8.47179 18.0467 8.5014C18.0667 8.53081 18.0868 8.56031 18.1069 8.58997C18.1271 8.61948 18.1473 8.64914 18.1676 8.6789C18.1879 8.70866 18.2065 8.73978 18.226 8.77023C18.2645 8.83167 18.3044 8.8922 18.3421 8.95406C18.379 9.01654 18.4158 9.07904 18.4525 9.14127L18.4801 9.1877L18.5059 9.23512C18.5231 9.26659 18.5402 9.29802 18.5573 9.32927C18.6279 9.45279 18.6875 9.58014 18.7499 9.69978C18.7785 9.76112 18.8065 9.8214 18.834 9.88046C18.8478 9.90987 18.8614 9.93897 18.8748 9.9677C18.8873 9.99695 18.8995 10.0258 18.9117 10.0543C18.936 10.1111 18.9597 10.1664 18.9827 10.2197C19.0039 10.2739 19.0244 10.3262 19.044 10.3764C19.0539 10.4014 19.0635 10.4259 19.0729 10.4499C19.0818 10.4733 19.0928 10.4986 19.0987 10.5181C19.1127 10.559 19.126 10.5978 19.1384 10.6343C19.1512 10.6705 19.1631 10.7044 19.1741 10.7358C19.1886 10.779 19.2019 10.8186 19.2139 10.8544C19.2273 10.8944 19.239 10.9298 19.2491 10.9601C19.2718 11.0282 19.3472 11.0629 19.4137 11.0361L23.1897 9.51908Z" fill="#4BB7F3"/>
<path d="M12.1 4.81056C12.133 4.81506 12.1694 4.82004 12.2092 4.82547C12.2487 4.83234 12.2915 4.83979 12.3371 4.84775C12.3827 4.85558 12.4312 4.8639 12.4823 4.87269C12.5267 4.88006 12.5727 4.89078 12.6205 4.90078L13.9949 2.08945C13.9268 2.07882 13.8592 2.06826 13.793 2.05792C13.7476 2.05118 13.703 2.04342 13.6585 2.03786C13.614 2.03248 13.57 2.02715 13.5267 2.0219C13.44 2.01162 13.3558 2.00159 13.2743 1.99191C13.1926 1.98491 13.1137 1.97814 13.0379 1.97165C12.9621 1.96584 12.8898 1.95818 12.8206 1.9549C12.7516 1.95151 12.686 1.94828 12.6245 1.94525C12.563 1.94234 12.5054 1.93964 12.4522 1.93711C12.399 1.93626 12.3501 1.93547 12.3059 1.93477C12.2438 1.93401 12.191 1.93338 12.1487 1.93287C12.0816 1.93206 12.0261 1.98448 12.0229 2.05148L11.8976 4.66816C11.8945 4.73263 11.941 4.78876 12.005 4.79753C12.0322 4.80127 12.064 4.80564 12.1 4.81056Z" fill="#4BB7F3"/>
<path d="M15.7934 6.25134C15.8304 6.27819 15.8654 6.30366 15.8983 6.32763C15.9312 6.35123 15.9621 6.37331 15.9906 6.39375C16.003 6.40224 16.0233 6.4177 16.04 6.43008C16.0571 6.44288 16.0735 6.45509 16.089 6.46666C16.1228 6.49189 16.1527 6.51418 16.1782 6.53325C16.2357 6.57615 16.3173 6.56165 16.3567 6.50167L18.1512 3.7683C18.1906 3.70833 18.1714 3.62767 18.1092 3.59197C18.0815 3.5761 18.0492 3.55756 18.0126 3.53657C17.9958 3.52692 17.9781 3.51679 17.9595 3.50612C17.9393 3.49468 17.9181 3.48271 17.8961 3.47023C17.845 3.44208 17.7898 3.41169 17.7308 3.37918C17.6718 3.34702 17.609 3.31281 17.5428 3.27671C17.4797 3.24511 17.4134 3.21189 17.3442 3.1772C17.2747 3.1433 17.2039 3.10558 17.1278 3.07135C17.0522 3.03669 16.974 3.00084 16.8936 2.96398C16.8137 2.92629 16.7294 2.89205 16.6439 2.85613C16.558 2.82096 16.4716 2.78251 16.3813 2.74858C16.3585 2.73992 16.3352 2.73115 16.3122 2.72241L15.5381 6.08236C15.5809 6.10923 15.6212 6.13773 15.6609 6.16345C15.7071 6.19409 15.7514 6.22342 15.7934 6.25134Z" fill="#4BB7F3"/>
<path d="M9.69036 4.79673C9.72502 4.79216 9.75905 4.7865 9.79303 4.78291C9.82701 4.77947 9.86059 4.77606 9.89368 4.77268C9.95974 4.76583 10.024 4.75916 10.0862 4.7527C10.1485 4.74853 10.2088 4.74448 10.2666 4.74059C10.2954 4.73862 10.3237 4.7367 10.3513 4.73481C10.3788 4.73296 10.4064 4.73062 10.4301 4.73059C10.4788 4.7293 10.5251 4.72811 10.5685 4.72698C10.6118 4.72561 10.6523 4.72432 10.6897 4.72314C10.736 4.72283 10.7784 4.72256 10.8167 4.7223C10.8589 4.72208 10.8962 4.72187 10.9281 4.7217C10.9998 4.72132 11.0562 4.66056 11.0515 4.58896L10.89 2.12404C10.8852 2.05245 10.8214 1.99957 10.7503 2.00857C10.7186 2.01256 10.6816 2.01723 10.6398 2.02251C10.601 2.02744 10.558 2.03292 10.5112 2.03888C10.4559 2.04709 10.3962 2.05593 10.3323 2.06541C10.2686 2.07511 10.2008 2.08544 10.1293 2.09633C10.0927 2.10148 10.0591 2.10833 10.0237 2.115C9.98847 2.12172 9.95242 2.12862 9.91561 2.13564C9.84212 2.14984 9.7656 2.16464 9.68632 2.17995C9.60768 2.19786 9.52633 2.21641 9.44273 2.23543C9.40102 2.245 9.35874 2.25473 9.31594 2.26458C9.27319 2.27459 9.23032 2.28681 9.18684 2.29806C9.10007 2.32117 9.01147 2.34479 8.92133 2.36879C8.8321 2.3957 8.74138 2.42303 8.64957 2.45072C8.6038 2.46489 8.55754 2.47826 8.51156 2.49339C8.46579 2.50903 8.41968 2.52472 8.37345 2.54051C8.32729 2.55632 8.28096 2.57219 8.2345 2.58813C8.18802 2.60394 8.14146 2.61983 8.09553 2.63795C8.00344 2.67309 7.91101 2.70838 7.81857 2.74367C7.72654 2.7797 7.63602 2.81961 7.5453 2.85738C7.50008 2.87666 7.45473 2.89525 7.41004 2.91503C7.36565 2.93552 7.32142 2.95593 7.27733 2.97629C7.23335 2.99666 7.18952 3.01697 7.14594 3.03715C7.10236 3.05731 7.05896 3.07717 7.01677 3.09907C6.93209 3.14182 6.84844 3.18406 6.76618 3.22559C6.6839 3.26685 6.60549 3.31237 6.5276 3.35428C6.45007 3.39698 6.37382 3.4377 6.3019 3.48158C6.22957 3.52448 6.15921 3.56624 6.09115 3.60661C6.02289 3.64642 5.95958 3.68942 5.89754 3.72828C5.83592 3.76776 5.77688 3.80563 5.72072 3.84163C5.66577 3.87935 5.61363 3.91512 5.56465 3.94875C5.51579 3.9824 5.47006 4.01388 5.42777 4.043C5.38553 4.07213 5.34817 4.10101 5.31373 4.12597C5.26707 4.16043 5.22723 4.18983 5.195 4.21363C5.14116 4.25337 5.12853 4.32843 5.16617 4.38378L6.18971 5.8886C6.22614 5.94216 6.29735 5.95896 6.35376 5.9271C6.37976 5.91245 6.41048 5.89509 6.44552 5.87534C6.47606 5.85844 6.50911 5.83848 6.54642 5.81905C6.58371 5.7996 6.62403 5.77863 6.6671 5.7562C6.71005 5.73374 6.75578 5.70984 6.80395 5.68465C6.85296 5.66116 6.90447 5.63645 6.95823 5.61068C7.01225 5.58552 7.06704 5.55669 7.12613 5.53156C7.18477 5.50581 7.2454 5.47921 7.30775 5.45185C7.36947 5.42343 7.43485 5.3986 7.50099 5.37207C7.56748 5.3463 7.63407 5.31715 7.70382 5.29252C7.77327 5.26748 7.84391 5.24204 7.91538 5.21627C7.95082 5.20281 7.9873 5.19141 8.02386 5.17974C8.06034 5.168 8.09702 5.1562 8.13383 5.14435C8.17056 5.13248 8.20744 5.12055 8.24443 5.10858C8.28162 5.09728 8.31933 5.08718 8.3568 5.07637C8.43206 5.05555 8.50681 5.03246 8.5826 5.01311C8.65844 4.99434 8.73428 4.97557 8.80982 4.9569C8.84731 4.94692 8.88535 4.93911 8.92322 4.9313C8.96102 4.92335 8.99871 4.91541 9.03628 4.90751C9.07372 4.89955 9.11103 4.89164 9.14817 4.88376C9.18538 4.87633 9.22279 4.8706 9.2597 4.86395C9.33352 4.85115 9.40643 4.83846 9.47818 4.82603C9.55018 4.81611 9.62099 4.8063 9.69036 4.79673Z" fill="#4BB7F3"/>
<path d="M2.7114 6.74227C2.68457 6.78022 2.65764 6.81834 2.63059 6.85661C2.6036 6.89486 2.57652 6.93326 2.54934 6.97179C2.52228 7.01037 2.49697 7.05038 2.47065 7.08974C2.41875 7.16899 2.36565 7.24764 2.31482 7.32777C2.26518 7.40859 2.21554 7.4894 2.1661 7.56992L2.12921 7.6302L2.0942 7.69146C2.07093 7.73218 2.04774 7.77283 2.02463 7.81328C1.93014 7.97377 1.84806 8.13783 1.76464 8.29366C1.72581 8.37311 1.68762 8.45125 1.65023 8.52774C1.63168 8.56594 1.61332 8.60379 1.5952 8.64112C1.57815 8.67897 1.56132 8.71638 1.5447 8.75332C1.51161 8.82704 1.47942 8.89878 1.44827 8.96816C1.41922 9.03841 1.39113 9.10627 1.36417 9.1714C1.33775 9.23673 1.31104 9.29855 1.28828 9.35855C1.26582 9.4186 1.2445 9.47559 1.22444 9.52912C1.20448 9.58261 1.18581 9.63265 1.16856 9.67893C1.15262 9.72567 1.13799 9.76859 1.12475 9.80737C1.10757 9.85835 1.09282 9.90211 1.08077 9.93793C1.05942 10.0012 1.09189 10.0699 1.15429 10.0939L2.10696 10.4591C2.16759 10.4823 2.23588 10.4552 2.26389 10.3966C2.27779 10.3676 2.29438 10.3329 2.31346 10.293C2.32927 10.2601 2.34675 10.2237 2.36583 10.1841C2.38609 10.145 2.40799 10.1028 2.43141 10.0577C2.45475 10.0127 2.47956 9.96468 2.50574 9.91416C2.53211 9.86378 2.56248 9.81212 2.59262 9.75755C2.62313 9.70329 2.65494 9.64672 2.68786 9.58816C2.72254 9.53074 2.75839 9.47132 2.79528 9.41024C2.81364 9.37974 2.83226 9.34885 2.85111 9.31757C2.87094 9.28687 2.89102 9.25585 2.91131 9.2244C2.95188 9.16175 2.99334 9.09778 3.0355 9.03265C3.12509 8.90583 3.2127 8.77227 3.3117 8.64345C3.33588 8.61089 3.36016 8.57822 3.38451 8.54545L3.42102 8.49627L3.45927 8.44817C3.5102 8.38402 3.56133 8.31968 3.61246 8.25533C3.66453 8.19177 3.71857 8.12985 3.77109 8.0674C3.79772 8.0364 3.82328 8.00477 3.85054 7.97463C3.87783 7.94455 3.90501 7.91453 3.93209 7.88465C3.95912 7.85479 3.98603 7.82505 4.01281 7.79544C4.03933 7.76568 4.06611 7.73645 4.09393 7.70844C4.14865 7.65177 4.20271 7.59579 4.25589 7.54069C4.30897 7.48569 4.36437 7.43466 4.41666 7.38307C4.46936 7.33186 4.52034 7.28134 4.57284 7.23503C4.62448 7.18804 4.6747 7.14234 4.72331 7.0981C4.77151 7.05362 4.82118 7.0139 4.86705 6.97404C4.91323 6.9347 4.95749 6.89701 4.99958 6.86116C5.04091 6.82845 5.08012 6.79742 5.11696 6.76822C5.15359 6.73907 5.18787 6.71176 5.21957 6.68649C5.23413 6.67447 5.25383 6.66007 5.27048 6.64741C5.28756 6.6345 5.30385 6.62222 5.31931 6.61058C5.35299 6.58514 5.38272 6.5627 5.40819 6.5435C5.46546 6.50028 5.47433 6.41787 5.42774 6.3633L4.34307 5.09259C4.29649 5.03803 4.2137 5.03386 4.16203 5.08362C4.13907 5.10576 4.11222 5.1316 4.08185 5.16088C4.0679 5.17429 4.0532 5.18847 4.03779 5.2033C4.0221 5.21853 4.00717 5.2324 3.98772 5.25228C3.95053 5.2898 3.91034 5.3304 3.86737 5.37375C3.82462 5.41712 3.77912 5.46328 3.73115 5.51194C3.68656 5.56024 3.63967 5.61102 3.59076 5.66399C3.54246 5.71738 3.49037 5.77116 3.43997 5.83012C3.38936 5.88879 3.33707 5.94944 3.28328 6.01177C3.22884 6.07336 3.17617 6.13952 3.12198 6.20665C3.06819 6.27412 3.0115 6.34145 2.95741 6.41279C2.90348 6.48414 2.84866 6.55667 2.79318 6.63013C2.76499 6.66654 2.73803 6.70413 2.7114 6.74227Z" fill="#4BB7F3"/>
<path d="M0.739945 11.1975C0.733604 11.2288 0.726177 11.2653 0.717764 11.3067C0.710059 11.3446 0.70152 11.3867 0.692223 11.4324C0.683103 11.4792 0.674185 11.5344 0.664232 11.5908C0.65443 11.6478 0.644021 11.7084 0.633057 11.7722C0.627752 11.8041 0.621689 11.8369 0.616661 11.8701C0.61219 11.9031 0.607642 11.9368 0.602969 11.9712C0.585183 12.1089 0.561765 12.2571 0.548274 12.4155C0.540443 12.4944 0.532409 12.5754 0.524198 12.6582C0.517428 12.7412 0.512906 12.8261 0.50707 12.9122C0.493428 13.0843 0.490927 13.2627 0.485243 13.4433L0.483398 13.5111L0.483727 13.5793C0.483979 13.6248 0.484232 13.6703 0.484485 13.716C0.484763 13.7617 0.485041 13.8074 0.485293 13.8532L0.485723 13.9218L0.48835 13.9905C0.492064 14.0819 0.495777 14.1733 0.499491 14.2643L0.502295 14.3324L0.503154 14.3545L0.504367 14.3709L0.506792 14.4037C0.510026 14.4475 0.513234 14.4911 0.516443 14.5346C0.519651 14.5781 0.522859 14.6213 0.526017 14.6644C0.530388 14.7093 0.534708 14.7541 0.539053 14.7985C0.543424 14.843 0.547769 14.8871 0.552089 14.9309C0.554261 14.9528 0.556434 14.9746 0.558607 14.9963C0.56131 15.0177 0.564013 15.039 0.566691 15.0602C0.577453 15.1448 0.588038 15.2281 0.598396 15.3096C0.610901 15.3907 0.623129 15.4701 0.635002 15.5473C0.646118 15.6246 0.660442 15.6993 0.673604 15.7715C0.674691 15.7773 0.675777 15.783 0.676838 15.7887C0.687827 15.8478 0.739213 15.8906 0.799263 15.8906H1.13503C1.20673 15.8906 1.26362 15.8302 1.25941 15.7587C1.25827 15.7396 1.25711 15.7203 1.25582 15.7008C1.25162 15.6312 1.24657 15.5594 1.24495 15.4853C1.24253 15.4113 1.24005 15.3353 1.2375 15.2576C1.23702 15.18 1.23654 15.1007 1.23606 15.0201C1.23594 14.9999 1.23581 14.9797 1.23568 14.9594C1.23611 14.9395 1.23657 14.9194 1.23702 14.8992C1.23791 14.859 1.23879 14.8184 1.2397 14.7776C1.24058 14.7369 1.24149 14.6959 1.2424 14.6547C1.24442 14.6116 1.24642 14.5682 1.24847 14.5247C1.25049 14.4812 1.25253 14.4375 1.25455 14.3936L1.2561 14.3607L1.25685 14.3443L1.25695 14.3422C1.25695 14.337 1.25706 14.347 1.25711 14.3453L1.25741 14.3413L1.25804 14.3334L1.26314 14.2696C1.26991 14.1846 1.27671 14.0994 1.28353 14.014L1.28874 13.9502L1.29609 13.8865C1.30099 13.8441 1.30586 13.8018 1.31074 13.7595C1.31559 13.7173 1.32044 13.6751 1.32527 13.6332L1.33247 13.5703L1.34179 13.5079C1.36735 13.3419 1.38908 13.1786 1.42091 13.0223C1.43584 12.944 1.44921 12.8669 1.46454 12.7919C1.48124 12.7172 1.49756 12.6441 1.51345 12.573C1.54286 12.4305 1.58098 12.298 1.612 12.1752C1.61996 12.1445 1.62774 12.1145 1.63535 12.0852C1.64338 12.0563 1.65204 12.029 1.66003 12.0019C1.67612 11.948 1.6914 11.8969 1.70575 11.8488C1.72043 11.8004 1.73248 11.7571 1.74653 11.7136C1.76126 11.6692 1.77475 11.6286 1.78697 11.5918C1.80026 11.5518 1.81201 11.5164 1.82206 11.4861C1.84468 11.418 1.80519 11.3451 1.73587 11.3266L0.894126 11.1022C0.824779 11.0836 0.754244 11.1272 0.739945 11.1975Z" fill="#4BB7F3"/>
<path d="M10.2676 15.5605C10.5414 15.6944 10.8315 15.7578 11.1171 15.7578C11.834 15.7578 12.523 15.3584 12.8591 14.671C12.9238 14.5386 12.9739 14.3925 13.0065 14.2549L14.9663 5.74843L15.7127 2.50886L16.1751 0.502039C16.2289 0.268482 16.0431 0.109375 15.8567 0.109375C15.7476 0.109375 15.6383 0.163918 15.5766 0.289956L14.6357 2.21457L13.2477 5.05379L9.37798 12.969C8.90801 13.9303 9.30631 15.0906 10.2676 15.5605ZM11.189 12.8211C11.7134 12.8211 12.1386 13.2463 12.1386 13.7707C12.1386 14.2951 11.7134 14.7203 11.189 14.7203C10.6645 14.7203 10.2394 14.2951 10.2394 13.7707C10.2394 13.2462 10.6645 12.8211 11.189 12.8211Z" fill="#4BB7F3"/>
</svg>
