<svg width="27" height="23" viewBox="0 0 27 23" fill="none" xmlns="http://www.w3.org/2000/svg">
<path d="M0.110529 4.63173C0.630015 2.11167 2.8627 0.210571 5.52644 0.210571H21.0005C23.6642 0.210571 25.8969 2.11167 26.4164 4.63173H0.110529ZM26.5269 6.8423V16.7899C26.5269 19.8405 24.0511 22.3163 21.0005 22.3163H5.52644C2.47585 22.3163 0 19.8405 0 16.7899V6.8423H26.5269ZM11.0529 11.2635C11.0529 10.6556 10.5555 10.1582 9.9476 10.1582H5.52644C4.91853 10.1582 4.42115 10.6556 4.42115 11.2635C4.42115 11.8714 4.91853 12.3687 5.52644 12.3687H6.63173V16.7899C6.63173 17.3978 7.12911 17.8952 7.73702 17.8952C8.34493 17.8952 8.84231 17.3978 8.84231 16.7899V12.3687H9.9476C10.5555 12.3687 11.0529 11.8714 11.0529 11.2635ZM22.1058 15.6846C22.1058 15.0767 21.6084 14.5793 21.0005 14.5793H14.3688C13.7608 14.5793 13.2635 15.0767 13.2635 15.6846C13.2635 16.2925 13.7608 16.7899 14.3688 16.7899H21.0005C21.6084 16.7899 22.1058 16.2925 22.1058 15.6846ZM22.1058 11.2635C22.1058 10.6556 21.6084 10.1582 21.0005 10.1582H14.3688C13.7608 10.1582 13.2635 10.6556 13.2635 11.2635C13.2635 11.8714 13.7608 12.3687 14.3688 12.3687H21.0005C21.6084 12.3687 22.1058 11.8714 22.1058 11.2635Z" fill="#BEBEBE"/>
</svg>
