<svg width="17" height="17" viewBox="0 0 17 17" fill="none" xmlns="http://www.w3.org/2000/svg">
<path d="M4.68284 4.79907C5.88031 4.79907 6.85104 4.04848 6.85104 3.12258C6.85104 2.19668 5.88031 1.44609 4.68284 1.44609C3.48538 1.44609 2.51465 2.19668 2.51465 3.12258C2.51465 4.04848 3.48538 4.79907 4.68284 4.79907Z" fill="#4BB7F3"/>
<path d="M0.18409 16.0917C0.269348 16.1303 0.370946 16.1412 0.466555 16.1219C0.562165 16.1026 0.643964 16.0548 0.693974 15.9889L2.14662 14.0725C2.67428 14.3419 3.29269 14.4854 3.92498 14.4852H6.74906C6.81385 14.4853 6.87729 14.4995 6.93222 14.5261C6.98715 14.5527 7.03139 14.5906 7.05994 14.6355L7.90106 15.9695C7.92252 16.0035 7.95242 16.0339 7.98907 16.059C8.02572 16.084 8.0684 16.1033 8.11466 16.1156C8.16093 16.1279 8.20988 16.1331 8.25872 16.1307C8.30756 16.1284 8.35533 16.1187 8.39931 16.1021C8.44329 16.0855 8.48261 16.0624 8.51503 16.0341C8.54745 16.0057 8.57234 15.9727 8.58827 15.937C8.60419 15.9012 8.61085 15.8633 8.60786 15.8256C8.60487 15.7878 8.59229 15.7509 8.57084 15.7169L7.72971 14.3831C7.6395 14.2413 7.49991 14.1218 7.32666 14.0381C7.15341 13.9544 6.95337 13.9097 6.74906 13.9091H3.92497C3.26182 13.9085 2.62605 13.7045 2.15715 13.3419C1.68825 12.9793 1.4245 12.4877 1.42377 11.9749V5.45259C1.42377 5.37619 1.38452 5.30293 1.31466 5.24891C1.24479 5.19488 1.15004 5.16454 1.05123 5.16454C0.952427 5.16454 0.857669 5.19488 0.787804 5.24891C0.717939 5.30293 0.678689 5.37619 0.678689 5.45259V11.9749C0.678891 12.6156 0.997333 13.2317 1.56823 13.6961L0.0511151 15.6975C0.00117637 15.7634 -0.0128691 15.8419 0.0120655 15.9159C0.037 15.9898 0.0988743 16.053 0.18409 16.0917Z" fill="#4BB7F3"/>
<path d="M12.7748 5.1879C13.4384 5.18819 14.0873 5.03626 14.6393 4.75134C15.1912 4.46643 15.6215 4.06132 15.8756 3.58728C16.1298 3.11324 16.1964 2.59156 16.067 2.08825C15.9376 1.58494 15.6181 1.12261 15.1488 0.759752C14.6795 0.396895 14.0816 0.149815 13.4306 0.049773C12.7797 -0.0502692 12.105 0.00122099 11.492 0.19773C10.8789 0.394238 10.355 0.726935 9.98648 1.15373C9.61799 1.58052 9.42151 2.08224 9.42188 2.59539C9.42343 3.2826 9.77717 3.94132 10.4056 4.42725C11.0341 4.91318 11.886 5.18671 12.7748 5.1879ZM12.4022 1.48348C12.4022 1.40708 12.4415 1.33381 12.5113 1.27979C12.5812 1.22577 12.676 1.19542 12.7748 1.19542C12.8736 1.19542 12.9683 1.22577 13.0382 1.27979C13.108 1.33381 13.1473 1.40708 13.1473 1.48348V2.30732H13.7434C13.8422 2.30732 13.9369 2.33767 14.0068 2.39169C14.0767 2.44571 14.1159 2.51898 14.1159 2.59538C14.1159 2.67178 14.0767 2.74504 14.0068 2.79907C13.9369 2.85309 13.8422 2.88344 13.7434 2.88344H12.7748C12.676 2.88321 12.5815 2.85279 12.5117 2.79881C12.4419 2.74484 12.4025 2.67171 12.4022 2.59538V1.48348Z" fill="#4BB7F3"/>
<path d="M4.68284 5.34921C4.13468 5.34972 3.60916 5.51832 3.22154 5.81802C2.83393 6.11773 2.61589 6.52408 2.61523 6.94793V11.6461C2.61554 12.0169 2.80588 12.3724 3.14456 12.6348C3.48323 12.8972 3.94262 13.0451 4.42206 13.0461H6.37791C6.39281 13.0461 6.40399 13.0432 6.41517 13.0432L8.65414 13.0374L10.3183 15.6484L10.3188 15.6499C10.3548 15.6963 10.4022 15.7368 10.4583 15.7692L10.4589 15.7695C10.4617 15.7709 10.4651 15.7713 10.468 15.7726C10.5245 15.7982 10.5887 15.8119 10.6542 15.8122C10.6567 15.8122 10.6592 15.8109 10.6617 15.8109C10.7111 15.8104 10.7599 15.8017 10.8047 15.7855C10.8086 15.7842 10.8128 15.7848 10.8167 15.7833L12.7814 15.0462C12.8699 15.0126 12.9376 14.9533 12.9697 14.8813C13.0017 14.8093 12.9956 14.7303 12.9526 14.6618C12.9096 14.5932 12.8332 14.5406 12.7402 14.5155C12.6472 14.4904 12.545 14.4948 12.4562 14.5277L12.1642 14.6373L12.1635 14.6362L10.5541 12.107C10.4022 11.8698 10.1675 11.6702 9.87648 11.5307C9.58549 11.3912 9.24985 11.3174 8.90749 11.3177H6.75046V6.94793C6.74981 6.52408 6.53176 6.11773 6.14415 5.81802C5.75654 5.51831 5.23101 5.34972 4.68284 5.34921Z" fill="#4BB7F3"/>
</svg>
