<svg width="25" height="24" viewBox="0 0 25 24" fill="none" xmlns="http://www.w3.org/2000/svg">
<path d="M12.4834 22.75C10.6951 22.7533 8.94917 22.2055 7.48337 21.181C7.32013 21.0672 7.20877 20.8933 7.17379 20.6974C7.13882 20.5015 7.18309 20.2997 7.29687 20.1365C7.41064 19.9733 7.58461 19.8619 7.78049 19.8269C7.97637 19.792 8.17813 19.8362 8.34137 19.95C9.4285 20.7069 10.7022 21.1514 12.0242 21.2354C13.3462 21.3194 14.666 21.0396 15.8401 20.4263C17.0143 19.8131 17.998 18.8899 18.6845 17.7569C19.3709 16.624 19.7338 15.3247 19.7338 14C19.7338 12.6753 19.3709 11.376 18.6845 10.2431C17.998 9.11013 17.0143 8.18691 15.8401 7.57367C14.666 6.96044 13.3462 6.68061 12.0242 6.76458C10.7022 6.84856 9.4285 7.29312 8.34137 8.05C8.26054 8.10634 8.1694 8.1462 8.07317 8.16732C7.97693 8.18844 7.87748 8.19039 7.78049 8.17307C7.6835 8.15576 7.59087 8.1195 7.50789 8.06639C7.42491 8.01327 7.3532 7.94433 7.29687 7.8635C7.24053 7.78267 7.20066 7.69154 7.17955 7.5953C7.15843 7.49907 7.15648 7.39962 7.17379 7.30263C7.20877 7.10674 7.32013 6.93278 7.48337 6.819C8.61048 6.03428 9.90649 5.52589 11.2665 5.33497C12.6266 5.14404 14.0125 5.27594 15.3121 5.72C16.6117 6.16405 17.7885 6.90779 18.7474 7.89104C19.7062 8.87429 20.4202 10.0694 20.8314 11.3798C21.2427 12.6902 21.3397 14.0789 21.1147 15.4337C20.8896 16.7886 20.3488 18.0714 19.5361 19.1784C18.7233 20.2855 17.6613 21.1856 16.4361 21.8061C15.2108 22.4266 13.8567 22.7499 12.4834 22.75Z" fill="#4BB7F3"/>
<path d="M7.4834 15.25H3.4834C3.28449 15.25 3.09372 15.171 2.95307 15.0303C2.81242 14.8897 2.7334 14.6989 2.7334 14.5C2.7334 14.3011 2.81242 14.1103 2.95307 13.9697C3.09372 13.829 3.28449 13.75 3.4834 13.75H7.4834C7.68231 13.75 7.87308 13.829 8.01373 13.9697C8.15438 14.1103 8.2334 14.3011 8.2334 14.5C8.2334 14.6989 8.15438 14.8897 8.01373 15.0303C7.87308 15.171 7.68231 15.25 7.4834 15.25Z" fill="#4BB7F3"/>
<path d="M8.1634 12.25H2.4834C2.28449 12.25 2.09372 12.171 1.95307 12.0303C1.81242 11.8897 1.7334 11.6989 1.7334 11.5C1.7334 11.3011 1.81242 11.1103 1.95307 10.9697C2.09372 10.829 2.28449 10.75 2.4834 10.75H8.1634C8.36231 10.75 8.55308 10.829 8.69373 10.9697C8.83438 11.1103 8.9134 11.3011 8.9134 11.5C8.9134 11.6989 8.83438 11.8897 8.69373 12.0303C8.55308 12.171 8.36231 12.25 8.1634 12.25Z" fill="#4BB7F3"/>
<path d="M8.4834 18.25H2.4834C2.28449 18.25 2.09372 18.171 1.95307 18.0303C1.81242 17.8897 1.7334 17.6989 1.7334 17.5C1.7334 17.3011 1.81242 17.1103 1.95307 16.9697C2.09372 16.829 2.28449 16.75 2.4834 16.75H8.4834C8.68231 16.75 8.87308 16.829 9.01373 16.9697C9.15438 17.1103 9.2334 17.3011 9.2334 17.5C9.2334 17.6989 9.15438 17.8897 9.01373 18.0303C8.87308 18.171 8.68231 18.25 8.4834 18.25Z" fill="#4BB7F3"/>
<path d="M22.1021 3.64132L18.7301 1.48832C18.3384 1.23944 17.8641 1.15599 17.411 1.25628C16.9579 1.35657 16.5631 1.6324 16.3131 2.02332L15.7751 2.86632C15.5259 3.25762 15.4421 3.73182 15.5422 4.18479C15.6424 4.63777 15.9182 5.03251 16.3091 5.28232L19.6831 7.43432C20.0745 7.68241 20.5482 7.7655 21.0007 7.66544C21.4532 7.56538 21.8477 7.29032 22.0981 6.90032L22.6361 6.05732C22.8847 5.66588 22.9681 5.19185 22.8681 4.73903C22.768 4.28621 22.4925 3.8915 22.1021 3.64132Z" fill="#4BB7F3"/>
<path d="M17.3227 8.16231C17.1884 8.16203 17.0566 8.1257 16.9412 8.05711C16.8257 7.98852 16.7308 7.89018 16.6663 7.77237C16.6018 7.65456 16.5702 7.52159 16.5746 7.38736C16.5791 7.25314 16.6195 7.12257 16.6917 7.00931L17.7667 5.32331C17.8197 5.24025 17.8885 5.16844 17.9693 5.11198C18.05 5.05551 18.1411 5.01551 18.2373 4.99425C18.3335 4.97298 18.4329 4.97087 18.5299 4.98804C18.6269 5.00521 18.7196 5.04132 18.8027 5.09431C18.8858 5.1473 18.9576 5.21613 19.014 5.29687C19.0705 5.37761 19.1105 5.46868 19.1318 5.56488C19.153 5.66108 19.1551 5.76053 19.138 5.85755C19.1208 5.95456 19.0847 6.04725 19.0317 6.13031L17.9557 7.81531C17.8881 7.92192 17.7946 8.00966 17.6839 8.07035C17.5732 8.13103 17.4489 8.16267 17.3227 8.16231Z" fill="#4BB7F3"/>
<path d="M12.4834 8.24988C11.3462 8.24988 10.2345 8.58711 9.28887 9.21893C8.34329 9.85075 7.6063 10.7488 7.17109 11.7995C6.73589 12.8501 6.62202 14.0063 6.84389 15.1217C7.06575 16.237 7.61339 17.2616 8.41754 18.0657C9.22169 18.8699 10.2462 19.4175 11.3616 19.6394C12.477 19.8613 13.6332 19.7474 14.6838 19.3122C15.7345 18.877 16.6325 18.14 17.2644 17.1944C17.8962 16.2488 18.2334 15.1371 18.2334 13.9999C18.2385 13.2434 18.0932 12.4934 17.806 11.7935C17.5188 11.0936 17.0955 10.4577 16.5605 9.92276C16.0256 9.38782 15.3897 8.96447 14.6898 8.67729C13.9899 8.39011 13.2399 8.24483 12.4834 8.24988ZM14.9754 12.8299L13.9544 13.7159C13.9732 13.8094 13.9829 13.9045 13.9834 13.9999C13.9885 14.3244 13.8899 14.642 13.7019 14.9065C13.5139 15.1711 13.2464 15.3687 12.9383 15.4706C12.6302 15.5726 12.2976 15.5735 11.989 15.4733C11.6803 15.3731 11.4117 15.177 11.2222 14.9135C11.0328 14.65 10.9324 14.3329 10.9357 14.0084C10.9389 13.6839 11.0457 13.3689 11.2404 13.1093C11.4352 12.8497 11.7077 12.659 12.0183 12.5651C12.3289 12.4711 12.6614 12.4787 12.9674 12.5869L13.9914 11.6969C14.1416 11.5664 14.3376 11.5009 14.5361 11.5149C14.7346 11.5289 14.9194 11.6211 15.0499 11.7714C15.1804 11.9216 15.2458 12.1176 15.2319 12.3161C15.2179 12.5146 15.1256 12.6994 14.9754 12.8299Z" fill="#4BB7F3"/>
</svg>
