<svg width="62" height="62" viewBox="0 0 62 62" fill="none" xmlns="http://www.w3.org/2000/svg">
<path d="M12.5322 47.2916C12.5348 49.5803 13.4451 51.7745 15.0634 53.3928C16.6818 55.0112 18.876 55.9215 21.1647 55.924H40.3478C42.6373 55.924 44.833 55.0145 46.4519 53.3957C48.0708 51.7768 48.9802 49.5811 48.9802 47.2916C48.9802 45.0021 48.0708 42.8065 46.4519 41.1876C44.833 39.5687 42.6373 38.6592 40.3478 38.6592H21.1647C18.876 38.6617 16.6818 39.572 15.0634 41.1904C13.4451 42.8087 12.5348 45.0029 12.5322 47.2916ZM40.3478 40.5775C42.1285 40.5775 43.8363 41.2849 45.0954 42.544C46.3546 43.8032 47.0619 45.5109 47.0619 47.2916C47.0619 49.0723 46.3546 50.7801 45.0954 52.0392C43.8363 53.2983 42.1285 54.0057 40.3478 54.0057H21.1647C19.384 54.0057 17.6762 53.2983 16.4171 52.0392C15.1579 50.7801 14.4505 49.0723 14.4505 47.2916C14.4505 45.5109 15.1579 43.8032 16.4171 42.544C17.6762 41.2849 19.384 40.5775 21.1647 40.5775H40.3478Z" fill="#4BB7F3"/>
<path d="M42.2659 17.5578C42.2659 15.2813 41.5909 13.056 40.3261 11.1632C39.0614 9.27041 37.2638 7.79515 35.1606 6.924C33.0575 6.05284 30.7432 5.8249 28.5105 6.26902C26.2778 6.71313 24.227 7.80934 22.6173 9.41903C21.0076 11.0287 19.9114 13.0796 19.4673 15.3123C19.0231 17.545 19.2511 19.8592 20.1222 21.9624C20.9934 24.0656 22.4686 25.8632 24.3614 27.1279C26.2542 28.3926 28.4796 29.0677 30.756 29.0677C33.8076 29.0644 36.7333 27.8507 38.8911 25.6928C41.0489 23.535 42.2626 20.6094 42.2659 17.5578ZM30.756 27.1493C28.859 27.1493 27.0045 26.5868 25.4272 25.5329C23.8499 24.4789 22.6205 22.9809 21.8945 21.2283C21.1686 19.4757 20.9786 17.5471 21.3487 15.6865C21.7188 13.8259 22.6323 12.1169 23.9737 10.7755C25.3151 9.43408 27.0242 8.52057 28.8848 8.15047C30.7454 7.78038 32.6739 7.97033 34.4265 8.69629C36.1792 9.42225 37.6772 10.6516 38.7311 12.229C39.785 13.8063 40.3476 15.6607 40.3476 17.5578C40.3448 20.1007 39.3334 22.5388 37.5352 24.3369C35.737 26.1351 33.299 27.1465 30.756 27.1493Z" fill="#4BB7F3"/>
<path d="M29.7969 13.7211C29.7969 13.152 29.6282 12.5957 29.312 12.1225C28.9958 11.6493 28.5464 11.2805 28.0206 11.0627C27.4948 10.8449 26.9163 10.7879 26.3581 10.8989C25.7999 11.0099 25.2872 11.284 24.8848 11.6864C24.4824 12.0888 24.2083 12.6016 24.0973 13.1597C23.9863 13.7179 24.0432 14.2965 24.261 14.8223C24.4788 15.3481 24.8476 15.7975 25.3208 16.1136C25.794 16.4298 26.3504 16.5986 26.9195 16.5986C27.6826 16.5986 28.4145 16.2954 28.9542 15.7558C29.4938 15.2162 29.7969 14.4843 29.7969 13.7211ZM26.9195 14.6803C26.7298 14.6803 26.5443 14.624 26.3866 14.5186C26.2289 14.4132 26.1059 14.2634 26.0333 14.0882C25.9607 13.9129 25.9417 13.72 25.9787 13.534C26.0157 13.3479 26.1071 13.177 26.2412 13.0429C26.3754 12.9087 26.5463 12.8174 26.7323 12.7804C26.9184 12.7434 27.1113 12.7624 27.2865 12.835C27.4618 12.9076 27.6116 13.0305 27.717 13.1882C27.8224 13.346 27.8786 13.5314 27.8786 13.7211C27.8786 13.9755 27.7776 14.2195 27.5977 14.3993C27.4178 14.5792 27.1739 14.6803 26.9195 14.6803Z" fill="#4BB7F3"/>
<path d="M37.4698 13.7211C37.4698 13.152 37.301 12.5957 36.9849 12.1225C36.6687 11.6493 36.2193 11.2805 35.6935 11.0627C35.1677 10.8449 34.5891 10.7879 34.031 10.8989C33.4728 11.0099 32.9601 11.284 32.5576 11.6864C32.1552 12.0888 31.8812 12.6016 31.7701 13.1597C31.6591 13.7179 31.7161 14.2965 31.9339 14.8223C32.1517 15.3481 32.5205 15.7975 32.9937 16.1136C33.4669 16.4298 34.0232 16.5986 34.5923 16.5986C35.3555 16.5986 36.0874 16.2954 36.627 15.7558C37.1666 15.2162 37.4698 14.4843 37.4698 13.7211ZM34.5923 14.6803C34.4026 14.6803 34.2172 14.624 34.0594 14.5186C33.9017 14.4132 33.7788 14.2634 33.7062 14.0882C33.6336 13.9129 33.6146 13.72 33.6516 13.534C33.6886 13.3479 33.78 13.177 33.9141 13.0429C34.0482 12.9087 34.2191 12.8174 34.4052 12.7804C34.5913 12.7434 34.7841 12.7624 34.9594 12.835C35.1346 12.9076 35.2844 13.0305 35.3898 13.1882C35.4952 13.346 35.5515 13.5314 35.5515 13.7211C35.5515 13.9755 35.4504 14.2195 35.2705 14.3993C35.0907 14.5792 34.8467 14.6803 34.5923 14.6803Z" fill="#4BB7F3"/>
<path d="M30.7564 19.4761C30.1873 19.4761 29.6309 19.6448 29.1577 19.961C28.6845 20.2772 28.3157 20.7266 28.0979 21.2524C27.8802 21.7782 27.8232 22.3567 27.9342 22.9149C28.0452 23.4731 28.3193 23.9858 28.7217 24.3882C29.1241 24.7907 29.6368 25.0647 30.195 25.1757C30.7532 25.2868 31.3318 25.2298 31.8575 25.012C32.3833 24.7942 32.8327 24.4254 33.1489 23.9522C33.4651 23.479 33.6339 22.9227 33.6339 22.3535C33.6339 21.5904 33.3307 20.8585 32.7911 20.3189C32.2514 19.7792 31.5195 19.4761 30.7564 19.4761ZM30.7564 23.3127C30.5667 23.3127 30.3812 23.2565 30.2235 23.1511C30.0658 23.0457 29.9428 22.8959 29.8702 22.7206C29.7976 22.5453 29.7786 22.3525 29.8157 22.1664C29.8527 21.9804 29.944 21.8095 30.0782 21.6753C30.2123 21.5412 30.3832 21.4498 30.5693 21.4128C30.7553 21.3758 30.9482 21.3948 31.1234 21.4674C31.2987 21.54 31.4485 21.6629 31.5539 21.8207C31.6593 21.9784 31.7155 22.1638 31.7155 22.3535C31.7155 22.6079 31.6145 22.8519 31.4346 23.0318C31.2547 23.2117 31.0108 23.3127 30.7564 23.3127Z" fill="#4BB7F3"/>
<path d="M24.0414 21.3944C25.1008 21.3944 25.9597 20.5355 25.9597 19.4761C25.9597 18.4166 25.1008 17.5577 24.0414 17.5577C22.9819 17.5577 22.123 18.4166 22.123 19.4761C22.123 20.5355 22.9819 21.3944 24.0414 21.3944Z" fill="#4BB7F3"/>
<path d="M37.4701 21.3944C38.5295 21.3944 39.3884 20.5355 39.3884 19.4761C39.3884 18.4166 38.5295 17.5577 37.4701 17.5577C36.4106 17.5577 35.5518 18.4166 35.5518 19.4761C35.5518 20.5355 36.4106 21.3944 37.4701 21.3944Z" fill="#4BB7F3"/>
<path d="M16.3682 47.2916C16.3682 48.6195 16.7619 49.9177 17.4997 51.0218C18.2375 52.1259 19.2861 52.9865 20.5129 53.4946C21.7397 54.0028 23.0897 54.1358 24.3921 53.8767C25.6945 53.6177 26.8909 52.9782 27.8299 52.0392C28.7688 51.1002 29.4083 49.9039 29.6674 48.6015C29.9264 47.2991 29.7935 45.9491 29.2853 44.7222C28.7771 43.4954 27.9166 42.4468 26.8124 41.709C25.7083 40.9713 24.4102 40.5775 23.0823 40.5775C21.3022 40.5795 19.5956 41.2876 18.3369 42.5463C17.0782 43.805 16.3702 45.5116 16.3682 47.2916ZM23.0823 42.4958C24.0308 42.4958 24.958 42.7771 25.7467 43.3041C26.5353 43.831 27.15 44.58 27.513 45.4564C27.876 46.3327 27.971 47.2969 27.7859 48.2272C27.6009 49.1575 27.1441 50.0121 26.4734 50.6828C25.8027 51.3535 24.9482 51.8102 24.0179 51.9953C23.0876 52.1803 22.1233 52.0853 21.247 51.7224C20.3707 51.3594 19.6217 50.7447 19.0947 49.956C18.5677 49.1674 18.2865 48.2401 18.2865 47.2916C18.288 46.0202 18.7938 44.8012 19.6928 43.9022C20.5919 43.0031 21.8108 42.4974 23.0823 42.4958Z" fill="#4BB7F3"/>
<path d="M23.0826 50.1691C23.6517 50.1691 24.208 50.0004 24.6812 49.6842C25.1544 49.368 25.5232 48.9186 25.741 48.3928C25.9588 47.867 26.0158 47.2885 25.9047 46.7303C25.7937 46.1721 25.5197 45.6594 25.1172 45.257C24.7148 44.8546 24.2021 44.5805 23.6439 44.4695C23.0857 44.3584 22.5072 44.4154 21.9814 44.6332C21.4556 44.851 21.0062 45.2198 20.69 45.693C20.3738 46.1662 20.2051 46.7226 20.2051 47.2917C20.2051 48.0548 20.5082 48.7867 21.0479 49.3263C21.5875 49.866 22.3194 50.1691 23.0826 50.1691ZM23.0826 46.3325C23.2723 46.3325 23.4577 46.3888 23.6154 46.4941C23.7732 46.5995 23.8961 46.7493 23.9687 46.9246C24.0413 47.0999 24.0603 47.2927 24.0233 47.4788C23.9863 47.6648 23.8949 47.8357 23.7608 47.9699C23.6266 48.104 23.4557 48.1954 23.2697 48.2324C23.0836 48.2694 22.8908 48.2504 22.7155 48.1778C22.5402 48.1052 22.3904 47.9823 22.285 47.8245C22.1796 47.6668 22.1234 47.4814 22.1234 47.2917C22.1234 47.0373 22.2244 46.7933 22.4043 46.6134C22.5842 46.4336 22.8282 46.3325 23.0826 46.3325Z" fill="#4BB7F3"/>
<path d="M31.7148 47.2916C31.7148 48.6195 32.1086 49.9177 32.8464 51.0218C33.5841 52.1259 34.6327 52.9865 35.8596 53.4946C37.0864 54.0028 38.4364 54.1358 39.7388 53.8767C41.0412 53.6177 42.2376 52.9782 43.1765 52.0392C44.1155 51.1002 44.755 49.9039 45.0141 48.6015C45.2731 47.2991 45.1402 45.9491 44.632 44.7222C44.1238 43.4954 43.2632 42.4468 42.1591 41.709C41.055 40.9713 39.7569 40.5775 38.429 40.5775C36.6489 40.5795 34.9423 41.2876 33.6836 42.5463C32.4249 43.805 31.7169 45.5116 31.7148 47.2916ZM38.429 42.4958C39.3775 42.4958 40.3047 42.7771 41.0934 43.3041C41.882 43.831 42.4967 44.58 42.8597 45.4564C43.2227 46.3327 43.3176 47.2969 43.1326 48.2272C42.9475 49.1575 42.4908 50.0121 41.8201 50.6828C41.1494 51.3535 40.2949 51.8102 39.3646 51.9953C38.4343 52.1803 37.47 52.0853 36.5937 51.7224C35.7174 51.3594 34.9684 50.7447 34.4414 49.956C33.9144 49.1674 33.6332 48.2401 33.6332 47.2916C33.6347 46.0202 34.1404 44.8012 35.0395 43.9022C35.9386 43.0031 37.1575 42.4974 38.429 42.4958Z" fill="#4BB7F3"/>
<path d="M38.4292 50.1691C38.9983 50.1691 39.5547 50.0004 40.0279 49.6842C40.5011 49.368 40.8699 48.9186 41.0877 48.3928C41.3055 47.867 41.3624 47.2885 41.2514 46.7303C41.1404 46.1721 40.8663 45.6594 40.4639 45.257C40.0615 44.8546 39.5488 44.5805 38.9906 44.4695C38.4324 44.3584 37.8539 44.4154 37.3281 44.6332C36.8023 44.851 36.3529 45.2198 36.0367 45.693C35.7205 46.1662 35.5518 46.7226 35.5518 47.2917C35.5518 48.0548 35.8549 48.7867 36.3946 49.3263C36.9342 49.866 37.6661 50.1691 38.4292 50.1691ZM38.4292 46.3325C38.6189 46.3325 38.8044 46.3888 38.9621 46.4941C39.1198 46.5995 39.2428 46.7493 39.3154 46.9246C39.388 47.0999 39.407 47.2927 39.37 47.4788C39.333 47.6648 39.2416 47.8357 39.1075 47.9699C38.9733 48.104 38.8024 48.1954 38.6164 48.2324C38.4303 48.2694 38.2374 48.2504 38.0622 48.1778C37.8869 48.1052 37.7371 47.9823 37.6317 47.8245C37.5263 47.6668 37.4701 47.4814 37.4701 47.2917C37.4701 47.0373 37.5711 46.7933 37.751 46.6134C37.9309 46.4336 38.1748 46.3325 38.4292 46.3325Z" fill="#4BB7F3"/>
<path d="M46.09 16.9333C45.9158 13.1059 44.3237 9.48029 41.6235 6.76217C38.9233 4.04404 35.3082 2.42795 31.482 2.22848C28.0468 2.06759 24.6571 3.0652 21.8566 5.06127C19.0562 7.05734 17.0073 9.93618 16.0388 13.236C15.0702 16.5358 15.238 20.0653 16.5154 23.2583C17.7927 26.4513 20.1055 29.1227 23.0827 30.844V34.8226H21.1644C17.8574 34.8226 14.6858 36.1363 12.3474 38.4747C10.009 40.8131 8.69531 43.9847 8.69531 47.2917C8.69531 50.5987 10.009 53.7702 12.3474 56.1086C14.6858 58.447 17.8574 59.7607 21.1644 59.7607H40.3475C43.6545 59.7607 46.8261 58.447 49.1645 56.1086C51.5029 53.7702 52.8166 50.5987 52.8166 47.2917C52.8166 43.9847 51.5029 40.8131 49.1645 38.4747C46.8261 36.1363 43.6545 34.8226 40.3475 34.8226H38.4292V30.844C40.8614 29.4535 42.8632 27.4194 44.2147 24.9654C45.5662 22.5113 46.2151 19.7322 46.09 16.9333ZM40.3475 36.7409C43.1458 36.7409 45.8294 37.8525 47.808 39.8312C49.7867 41.8098 50.8983 44.4934 50.8983 47.2917C50.8983 50.0899 49.7867 52.7735 47.808 54.7522C45.8294 56.7308 43.1458 57.8424 40.3475 57.8424H21.1644C18.3661 57.8424 15.6825 56.7308 13.7039 54.7522C11.7252 52.7735 10.6136 50.0899 10.6136 47.2917C10.6136 44.4934 11.7252 41.8098 13.7039 39.8312C15.6825 37.8525 18.3661 36.7409 21.1644 36.7409H25.001V29.6997L24.4907 29.4302C21.8373 28.0305 19.7291 25.7827 18.5021 23.0451C17.2752 20.3075 17.0003 17.238 17.7213 14.326C18.4423 11.414 20.1176 8.82726 22.48 6.97838C24.8425 5.12951 27.756 4.12496 30.756 4.12496C33.7559 4.12496 36.6694 5.12951 39.0319 6.97838C41.3943 8.82726 43.0696 11.414 43.7906 14.326C44.5116 17.238 44.2367 20.3075 43.0098 23.0451C41.7828 25.7827 39.6746 28.0305 37.0212 29.4302L36.5109 29.6997V36.7409H40.3475Z" fill="#4BB7F3"/>
<path d="M33.4412 30.7165C31.6686 31.0738 29.8425 31.0738 28.0699 30.7165L26.9189 30.4844V36.741H34.5922V30.4844L33.4412 30.7165ZM32.6739 34.8226H28.8373V32.7844C30.1112 32.9437 31.4 32.9437 32.6739 32.7844V34.8226Z" fill="#4BB7F3"/>
</svg>
