<svg width="22" height="22" viewBox="0 0 22 22" fill="none" xmlns="http://www.w3.org/2000/svg">
<g clip-path="url(#clip0_262_749)">
<path d="M10.0448 18.2101C10.0763 18.015 10.1871 17.8386 10.3475 17.7258L11.1636 17.1367C11.1554 17.0984 11.1487 17.0615 11.1429 17.0281C11.1388 17.0057 11.1355 16.9827 11.1324 16.96L10.1455 16.7772C9.9568 16.7422 9.78856 16.6292 9.68252 16.4676C9.57354 16.3014 9.53837 16.1027 9.58342 15.9083L9.98296 13.6824C10.0188 13.4837 10.1268 13.3134 10.2869 13.2026C10.4454 13.0937 10.6391 13.0514 10.8344 13.0888L11.8126 13.27C11.8318 13.2392 11.8509 13.2104 11.8701 13.1841L11.9067 13.1271C11.907 13.1264 11.9074 13.1257 11.9077 13.1248L11.3264 12.2701C11.2469 12.1619 11.2015 12.0271 11.1977 11.8852C11.1963 11.8375 11.1994 11.7897 11.2076 11.741C11.2394 11.5463 11.3498 11.3702 11.5103 11.2578L12.6976 10.4232C12.2399 10.0978 11.7487 9.83028 11.2317 9.62549C11.1575 9.68474 11.0799 9.73793 11.0031 9.79303C10.9804 9.80932 10.9584 9.82664 10.9354 9.84258C10.8037 9.93424 10.6686 10.02 10.5301 10.0992C10.5189 10.1056 10.5078 10.1134 10.4965 10.1198C10.3492 10.2024 10.1985 10.2783 10.0445 10.3469C9.99474 10.3693 9.94328 10.387 9.89286 10.4079C9.79099 10.4495 9.68928 10.4902 9.58532 10.5254C9.51567 10.5491 9.44516 10.5694 9.37412 10.5904C9.28333 10.6172 9.19168 10.6422 9.0995 10.6642C9.02742 10.6812 8.95535 10.6971 8.8824 10.7113C8.77949 10.7312 8.67622 10.7468 8.57227 10.7607C8.50972 10.7688 8.44804 10.7787 8.38515 10.7848C8.21587 10.8011 8.04555 10.8118 7.87454 10.8118C7.70388 10.8118 7.53391 10.8011 7.36498 10.7848C7.30157 10.7787 7.23902 10.7688 7.17596 10.7603C7.07338 10.7465 6.97151 10.7312 6.86998 10.7117C6.79547 10.6975 6.72166 10.6812 6.6482 10.6637C6.55915 10.6425 6.47078 10.6183 6.38277 10.5925C6.30896 10.5708 6.23515 10.5498 6.1629 10.5251C6.06518 10.4916 5.96954 10.4533 5.87372 10.4147C5.81724 10.3916 5.75937 10.3714 5.70376 10.3466C5.55354 10.2795 5.40627 10.2052 5.26263 10.1248C5.23456 10.1091 5.20788 10.091 5.18033 10.0748C5.05957 10.0044 4.94106 9.92991 4.8255 9.84969C4.7924 9.82699 4.76087 9.80256 4.72864 9.77917C4.66194 9.73083 4.59333 9.68474 4.52853 9.63329C1.81179 10.7066 0 13.4204 0 16.4483V19.7942H3.34151C3.29317 19.7353 3.2606 19.6632 3.2606 19.5812V17.7662C3.2606 17.5782 3.41324 17.4255 3.60123 17.4255C3.78939 17.4255 3.94186 17.5782 3.94186 17.7662V19.5812C3.94186 19.6632 3.90929 19.7356 3.86095 19.7942H10.8818L10.164 18.7378C10.0583 18.594 10.0133 18.4027 10.0448 18.2101Z" fill="#4BB7F3"/>
<path d="M16.4267 14.0003C16.3135 13.9793 16.1995 13.9688 16.0864 13.9688C15.6993 13.9688 15.3178 14.0904 14.9864 14.3236C14.5567 14.6258 14.2692 15.074 14.1767 15.5863C14.0847 16.0988 14.1977 16.6226 14.4957 17.0601C14.7923 17.4969 15.2315 17.7881 15.7322 17.8808C16.2312 17.9726 16.7432 17.8592 17.1722 17.5575C17.6023 17.2555 17.8897 16.8071 17.9819 16.2946C18.0721 15.7928 17.9588 15.2687 17.6622 14.8186C17.3649 14.3835 16.9264 14.0925 16.4267 14.0003Z" fill="#4BB7F3"/>
<path d="M5.17104 9.26202C5.17658 9.26583 5.1823 9.26912 5.18802 9.27293C5.30185 9.35315 5.42002 9.42766 5.54078 9.49765C5.58895 9.52538 5.63833 9.54981 5.68719 9.57562C5.76671 9.61824 5.84659 9.65983 5.92819 9.69742C5.99247 9.72688 6.05779 9.75339 6.12294 9.78007C6.19293 9.80883 6.26345 9.83621 6.33484 9.86133C6.40622 9.88645 6.47778 9.9095 6.5502 9.93115C6.62158 9.95246 6.69401 9.9717 6.7666 9.98972C6.83764 10.0076 6.90902 10.0245 6.98093 10.0387C7.06617 10.0554 7.15245 10.0682 7.23891 10.0803C7.29973 10.0888 7.35967 10.099 7.42066 10.1051C7.57001 10.1197 7.72127 10.1292 7.87409 10.1292C8.02742 10.1292 8.17885 10.1197 8.32872 10.1051C8.38867 10.099 8.44827 10.0888 8.50788 10.0807C8.59589 10.0685 8.68391 10.0557 8.77037 10.0384C8.84071 10.0245 8.91054 10.0076 8.98019 9.99006C9.05503 9.9717 9.12988 9.95177 9.20335 9.92977C9.27369 9.9088 9.34317 9.8861 9.41195 9.86202C9.4868 9.83586 9.56061 9.8071 9.63373 9.77695C9.69593 9.75131 9.7583 9.72584 9.81929 9.69777C9.90557 9.65792 9.98961 9.61443 10.0731 9.56973C10.1178 9.54582 10.1632 9.52347 10.2072 9.498C10.3289 9.42731 10.4477 9.35211 10.5631 9.2712C10.5678 9.26808 10.5726 9.26514 10.5777 9.26167C11.8633 8.35049 12.7098 6.80899 12.7098 5.0646C12.7098 2.27197 10.5411 0 7.87443 0C5.20829 0 3.03906 2.27197 3.03906 5.0646C3.03906 6.80933 3.88579 8.35084 5.17104 9.26202Z" fill="#4BB7F3"/>
<path d="M21.8654 15.726L20.6397 15.4987C20.5449 15.4812 20.4694 15.4091 20.447 15.3162C20.4297 15.2428 20.4207 15.171 20.4112 15.0905C20.4074 15.0607 20.4041 15.0315 20.3942 14.9848C20.3892 14.9699 20.3814 14.9312 20.3682 14.869C20.3594 14.8262 20.3502 14.7826 20.3346 14.7427C20.2937 14.6381 20.3296 14.5199 20.4214 14.4553L21.4547 13.7293C21.4882 13.7063 21.5112 13.6694 21.5176 13.6278L21.5232 13.5902L20.1735 11.5691L20.1258 11.605L20.1102 11.6006L19.0053 12.3451C18.9113 12.4098 18.7829 12.4027 18.6995 12.3238C18.6607 12.288 18.6167 12.2595 18.5571 12.2209L18.4759 12.167C18.4169 12.1227 18.3411 12.0787 18.251 12.0374C18.1498 11.991 18.0929 11.8824 18.1125 11.7729L18.3367 10.5273C18.3471 10.4701 18.3308 10.4311 18.3147 10.4081C18.2995 10.3861 18.2709 10.358 18.2186 10.3485L16.0232 9.94149L16.0013 9.9375L15.9797 9.94322C15.9066 9.96349 15.8639 10.0039 15.8532 10.0638L15.629 11.3097C15.612 11.4042 15.541 11.4797 15.4481 11.5027C15.3753 11.5208 15.3047 11.5301 15.2362 11.5386L15.2118 11.5417C15.1868 11.5454 15.1628 11.5481 15.1212 11.5577C15.1068 11.5623 15.069 11.5705 15.0138 11.5826C14.9704 11.5918 14.9264 11.6013 14.8864 11.6178C14.7781 11.6609 14.6586 11.624 14.5936 11.5291L13.8792 10.4782L13.852 10.4339H13.8006C13.7756 10.4277 13.7607 10.4237 13.7444 10.4237L13.4407 10.615L13.3737 10.6153V10.6621L11.8472 11.7351C11.8138 11.7583 11.7907 11.7952 11.7843 11.8363L11.7786 11.8739L12.5245 12.9916C12.5877 13.0843 12.5793 13.2078 12.5042 13.2911C12.4699 13.3298 12.4415 13.3734 12.4015 13.4381L12.35 13.5179C12.306 13.5779 12.2634 13.6538 12.2204 13.7499C12.1743 13.8522 12.0647 13.9097 11.9543 13.8894L10.7287 13.6623L10.7067 13.6585L10.685 13.664C10.6115 13.6843 10.5691 13.7255 10.5587 13.7855L10.1543 16.0479L10.1581 16.1752L11.4782 16.4301C11.5728 16.4474 11.6485 16.5195 11.6709 16.6124C11.6882 16.6858 11.697 16.7576 11.7067 16.8388C11.7105 16.8686 11.7138 16.8977 11.7194 16.93C11.7287 16.9814 11.7499 17.1013 11.783 17.1859C11.8233 17.2891 11.7887 17.407 11.6984 17.4714L10.6879 18.201C10.6524 18.2254 10.6283 18.2636 10.6219 18.305L10.6159 18.3426L11.972 20.3574L12.0179 20.329C12.0305 20.3325 12.042 20.3344 12.0541 20.3344L13.1455 19.5899C13.2375 19.5256 13.369 19.535 13.4515 19.6112C13.4901 19.6471 13.5341 19.6755 13.5937 19.7141L13.6753 19.7683C13.7353 19.8137 13.8111 19.857 13.8995 19.8976C14.0007 19.944 14.0575 20.0527 14.0379 20.1622L13.8141 21.4074C13.7976 21.4975 13.8463 21.5713 13.9323 21.5869L16.1592 21.9999L16.1808 21.9935C16.208 21.9861 16.2916 21.9627 16.3068 21.8729L16.5307 20.627C16.5476 20.5322 16.619 20.4567 16.7121 20.434C16.7847 20.4163 16.8553 20.4071 16.9227 20.3981C16.9562 20.3943 16.9894 20.39 17.0206 20.3843C17.0934 20.3713 17.1981 20.3496 17.2748 20.3195C17.3802 20.2779 17.5033 20.3151 17.5664 20.4085L18.2808 21.4588L18.3177 21.5015L18.3648 21.5046C18.3837 21.51 18.3982 21.5138 18.4149 21.5138L20.3126 20.2024C20.3459 20.1793 20.3689 20.1424 20.3753 20.1008L20.381 20.0632L19.6348 18.9462C19.5712 18.8535 19.5799 18.7298 19.6551 18.6466C19.6902 18.608 19.7178 18.5643 19.758 18.5002L19.8101 18.4193C19.8548 18.3571 19.8971 18.2819 19.9385 18.1885C19.9843 18.0861 20.0926 18.0272 20.205 18.0484L21.453 18.2795L21.4747 18.2734C21.5481 18.2528 21.5904 18.2125 21.601 18.1525L21.9998 15.9169C21.9937 15.8147 21.9409 15.7402 21.8654 15.726ZM18.5568 16.3981C18.4376 17.0627 18.0647 17.644 17.5078 18.0354C16.9539 18.4242 16.2872 18.5765 15.6259 18.4547C14.9697 18.3334 14.3966 17.9545 14.0123 17.3877C13.628 16.8232 13.4819 16.1461 13.6015 15.4822C13.7214 14.8179 14.0936 14.2368 14.6504 13.8451C15.0818 13.542 15.5789 13.3842 16.085 13.3842C16.234 13.3842 16.3837 13.3979 16.5327 13.4256C17.1878 13.547 17.7605 13.9256 18.1477 14.4944C18.5287 15.0711 18.6735 15.7466 18.5568 16.3981Z" fill="#4BB7F3"/>
</g>
<defs>
<clipPath id="clip0_262_749">
<rect width="22" height="22" fill="white"/>
</clipPath>
</defs>
</svg>
