<svg width="36" height="35" viewBox="0 0 36 35" fill="none" xmlns="http://www.w3.org/2000/svg">
<path d="M10.7946 10.7594C13.3454 10.7594 15.4133 9.16042 15.4133 7.18803C15.4133 5.21564 13.3454 3.6167 10.7946 3.6167C8.24368 3.6167 6.17578 5.21564 6.17578 7.18803C6.17578 9.16042 8.24368 10.7594 10.7946 10.7594Z" fill="#727272"/>
<path d="M1.21052 34.8155C1.39214 34.8977 1.60856 34.9209 1.81223 34.8798C2.01591 34.8387 2.19016 34.7368 2.29669 34.5964L5.39118 30.5141C6.51521 31.0879 7.83259 31.3936 9.1795 31.3932H15.1955C15.3335 31.3935 15.4686 31.4237 15.5857 31.4803C15.7027 31.5369 15.7969 31.6177 15.8577 31.7135L17.6495 34.5551C17.6952 34.6275 17.7589 34.6923 17.837 34.7457C17.9151 34.7991 18.006 34.8401 18.1045 34.8663C18.2031 34.8926 18.3074 34.9035 18.4114 34.8986C18.5155 34.8937 18.6172 34.873 18.7109 34.8376C18.8046 34.8023 18.8884 34.753 18.9574 34.6927C19.0265 34.6323 19.0795 34.562 19.1134 34.4858C19.1474 34.4096 19.1615 34.329 19.1552 34.2485C19.1488 34.1681 19.122 34.0894 19.0763 34.0169L17.2845 31.1756C17.0923 30.8737 16.795 30.6192 16.4259 30.4408C16.0568 30.2624 15.6307 30.1672 15.1955 30.1659H9.17949C7.76682 30.1646 6.41249 29.7301 5.41361 28.9577C4.41473 28.1853 3.85289 27.1381 3.85134 26.0457V12.1516C3.85134 11.9888 3.76773 11.8328 3.6189 11.7177C3.47007 11.6026 3.26821 11.538 3.05773 11.538C2.84726 11.538 2.6454 11.6026 2.49657 11.7177C2.34774 11.8328 2.26413 11.9888 2.26413 12.1516V26.0458C2.26456 27.4105 2.94292 28.723 4.15907 29.7121L0.927247 33.9756C0.820865 34.116 0.790945 34.2834 0.844062 34.4409C0.897178 34.5984 1.02899 34.7331 1.21052 34.8155Z" fill="#727272"/>
<path d="M28.0311 11.5876C29.4449 11.5882 30.8271 11.2646 32.0029 10.6576C33.1788 10.0507 34.0954 9.18772 34.6367 8.1779C35.1781 7.16808 35.32 6.05678 35.0444 4.98461C34.7687 3.91243 34.088 2.92756 33.0884 2.15459C32.0887 1.38161 30.8149 0.855275 29.4283 0.642161C28.0417 0.429047 26.6044 0.538734 25.2984 0.957344C23.9924 1.37595 22.8764 2.08468 22.0914 2.99385C21.3065 3.90302 20.8879 4.97179 20.8887 6.06494C20.892 7.52886 21.6455 8.93209 22.9843 9.96724C24.323 11.0024 26.1378 11.5851 28.0311 11.5876ZM27.2375 3.6963C27.2375 3.53355 27.3211 3.37747 27.47 3.2624C27.6188 3.14732 27.8206 3.08267 28.0311 3.08267C28.2416 3.08267 28.4434 3.14732 28.5923 3.2624C28.7411 3.37747 28.8247 3.53355 28.8247 3.6963V5.45128H30.0945C30.305 5.45128 30.5068 5.51593 30.6556 5.63101C30.8045 5.74609 30.8881 5.90217 30.8881 6.06491C30.8881 6.22766 30.8045 6.38374 30.6556 6.49881C30.5068 6.61389 30.305 6.67854 30.0945 6.67854H28.0311C27.8208 6.67805 27.6193 6.61325 27.4706 6.49828C27.322 6.3833 27.2381 6.22751 27.2375 6.06491V3.6963Z" fill="#727272"/>
<path d="M10.7942 11.9314C9.62643 11.9325 8.50694 12.2916 7.68124 12.9301C6.85553 13.5685 6.39104 14.4341 6.38965 15.337V25.3454C6.3903 26.1351 6.79578 26.8924 7.51723 27.4514C8.23869 28.0104 9.21729 28.3255 10.2386 28.3276H14.4051C14.4368 28.3276 14.4606 28.3215 14.4844 28.3215L19.254 28.3092L22.799 33.8711L22.8001 33.8742C22.8768 33.9731 22.9777 34.0595 23.0973 34.1284L23.0985 34.1292C23.1046 34.132 23.1117 34.133 23.1179 34.1357C23.2383 34.1903 23.3751 34.2193 23.5146 34.22C23.52 34.22 23.5252 34.2173 23.5305 34.2172C23.6359 34.2161 23.7397 34.1977 23.8352 34.1631C23.8435 34.1603 23.8524 34.1617 23.8606 34.1586L28.0461 32.5883C28.2345 32.5168 28.3787 32.3905 28.4471 32.237C28.5154 32.0836 28.5023 31.9154 28.4107 31.7694C28.3191 31.6233 28.1564 31.5113 27.9582 31.4578C27.76 31.4043 27.5425 31.4136 27.3532 31.4838L26.7313 31.7172L26.7297 31.7148L23.3014 26.3272C22.9777 25.8218 22.4777 25.3965 21.8578 25.0994C21.238 24.8023 20.523 24.6452 19.7937 24.6458H15.1987V15.337C15.1973 14.4341 14.7328 13.5685 13.9071 12.9301C13.0814 12.2916 11.9619 11.9325 10.7942 11.9314Z" fill="#727272"/>
</svg>
