<svg width="32" height="24" viewBox="0 0 32 24" fill="none" xmlns="http://www.w3.org/2000/svg">
<path d="M15.9995 16.0512C18.0245 16.0512 19.6661 17.6928 19.6661 19.7178C19.6661 21.7429 18.0245 23.3845 15.9995 23.3845C13.9744 23.3845 12.3328 21.7429 12.3328 19.7178C12.3328 17.6928 13.9744 16.0512 15.9995 16.0512ZM15.9995 18.0512C15.079 18.0512 14.3328 18.7974 14.3328 19.7178C14.3328 20.6383 15.079 21.3845 15.9995 21.3845C16.92 21.3845 17.6661 20.6383 17.6661 19.7178C17.6661 18.7974 16.92 18.0512 15.9995 18.0512ZM15.9996 10.7179C19.5164 10.7179 22.5621 12.7351 24.0428 15.6755L22.5285 17.1882C21.5143 14.5725 18.9735 12.7179 15.9996 12.7179C13.0256 12.7179 10.4849 14.5725 9.47066 17.1882L7.95684 15.6745C9.43776 12.7346 12.4832 10.7179 15.9996 10.7179ZM15.9997 5.38475C20.9801 5.38475 25.3673 7.92496 27.9363 11.7805L26.4892 13.2279C24.3145 9.72058 20.4299 7.38475 15.9997 7.38475C11.5695 7.38475 7.68485 9.72058 5.51018 13.2279L4.06308 11.7805C6.63204 7.92496 11.0192 5.38475 15.9997 5.38475ZM15.9995 0.0511475C22.4505 0.0511475 28.1761 3.15719 31.7624 7.95536L30.3319 9.38634C27.1232 4.94292 21.8991 2.05115 15.9995 2.05115C10.1003 2.05115 4.87649 4.94248 1.66778 9.38534L0.237305 7.95435C3.8236 3.15675 9.54886 0.0511475 15.9995 0.0511475Z" fill="#727272"/>
</svg>
