<svg width="18" height="18" viewBox="0 0 18 18" fill="none" xmlns="http://www.w3.org/2000/svg">
<path d="M16.5311 5.52295C12.0473 1.04494 5.53872 1.04494 1.05484 5.52295C0.625436 5.95163 0.624704 6.64777 1.05411 7.07791C1.48352 7.50805 2.17893 7.50805 2.60907 7.07864C6.19309 3.49902 11.3943 3.49902 14.9784 7.07864C15.1931 7.29261 15.8489 7.67879 16.5333 7.07791C16.9898 6.67708 16.9613 5.95236 16.5326 5.52295H16.5311Z" fill="#4BB7F3"/>
<path d="M3.84 9.07253C3.41059 9.5012 3.40986 10.1973 3.83927 10.6275C4.26868 11.0576 4.96408 11.0576 5.39422 10.6282C7.45919 8.56545 10.1294 8.56545 12.1944 10.6282C12.4091 10.8422 13.1053 11.2276 13.7494 10.6275C14.1934 10.2135 14.1773 9.50194 13.7486 9.07253C10.8322 6.15973 6.75793 6.15973 3.84073 9.07253H3.84Z" fill="#4BB7F3"/>
<path d="M8.79377 11.1353C7.45132 11.1353 6.65039 11.9333 6.65039 13.2713C6.65039 14.6094 7.45132 15.4067 8.79377 15.4067C10.1362 15.4067 10.9371 14.6087 10.9371 13.2713C10.9371 11.934 10.1362 11.1353 8.79377 11.1353Z" fill="#4BB7F3"/>
</svg>
